%TF.GenerationSoftware,KiCad,Pcbnew,9.0.5*%
%TF.CreationDate,2025-11-14T09:38:31+01:00*%
%TF.ProjectId,versie_2,76657273-6965-45f3-922e-6b696361645f,rev?*%
%TF.SameCoordinates,Original*%
%TF.FileFunction,Legend,Bot*%
%TF.FilePolarity,Positive*%
%FSLAX46Y46*%
G04 Gerber Fmt 4.6, Leading zero omitted, Abs format (unit mm)*
G04 Created by KiCad (PCBNEW 9.0.5) date 2025-11-14 09:38:31*
%MOMM*%
%LPD*%
G01*
G04 APERTURE LIST*
%ADD10C,0.150000*%
%ADD11C,0.127000*%
G04 APERTURE END LIST*
D10*
X110428333Y-72249819D02*
X110428333Y-72964104D01*
X110428333Y-72964104D02*
X110475952Y-73106961D01*
X110475952Y-73106961D02*
X110571190Y-73202200D01*
X110571190Y-73202200D02*
X110714047Y-73249819D01*
X110714047Y-73249819D02*
X110809285Y-73249819D01*
X110047380Y-72249819D02*
X109428333Y-72249819D01*
X109428333Y-72249819D02*
X109761666Y-72630771D01*
X109761666Y-72630771D02*
X109618809Y-72630771D01*
X109618809Y-72630771D02*
X109523571Y-72678390D01*
X109523571Y-72678390D02*
X109475952Y-72726009D01*
X109475952Y-72726009D02*
X109428333Y-72821247D01*
X109428333Y-72821247D02*
X109428333Y-73059342D01*
X109428333Y-73059342D02*
X109475952Y-73154580D01*
X109475952Y-73154580D02*
X109523571Y-73202200D01*
X109523571Y-73202200D02*
X109618809Y-73249819D01*
X109618809Y-73249819D02*
X109904523Y-73249819D01*
X109904523Y-73249819D02*
X109999761Y-73202200D01*
X109999761Y-73202200D02*
X110047380Y-73154580D01*
D11*
%TO.C,J3*%
X107670000Y-68460000D02*
X107670000Y-71960000D01*
X107670000Y-71960000D02*
X115170000Y-71960000D01*
X115170000Y-68460000D02*
X107670000Y-68460000D01*
X115170000Y-71960000D02*
X115170000Y-68460000D01*
%TD*%
M02*
