%TF.GenerationSoftware,KiCad,Pcbnew,9.0.4*%
%TF.CreationDate,2025-10-18T11:14:00+02:00*%
%TF.ProjectId,versie_2,76657273-6965-45f3-922e-6b696361645f,rev?*%
%TF.SameCoordinates,Original*%
%TF.FileFunction,Soldermask,Top*%
%TF.FilePolarity,Negative*%
%FSLAX46Y46*%
G04 Gerber Fmt 4.6, Leading zero omitted, Abs format (unit mm)*
G04 Created by KiCad (PCBNEW 9.0.4) date 2025-10-18 11:14:00*
%MOMM*%
%LPD*%
G01*
G04 APERTURE LIST*
G04 Aperture macros list*
%AMRoundRect*
0 Rectangle with rounded corners*
0 $1 Rounding radius*
0 $2 $3 $4 $5 $6 $7 $8 $9 X,Y pos of 4 corners*
0 Add a 4 corners polygon primitive as box body*
4,1,4,$2,$3,$4,$5,$6,$7,$8,$9,$2,$3,0*
0 Add four circle primitives for the rounded corners*
1,1,$1+$1,$2,$3*
1,1,$1+$1,$4,$5*
1,1,$1+$1,$6,$7*
1,1,$1+$1,$8,$9*
0 Add four rect primitives between the rounded corners*
20,1,$1+$1,$2,$3,$4,$5,0*
20,1,$1+$1,$4,$5,$6,$7,0*
20,1,$1+$1,$6,$7,$8,$9,0*
20,1,$1+$1,$8,$9,$2,$3,0*%
G04 Aperture macros list end*
%ADD10RoundRect,0.102000X0.654000X0.654000X-0.654000X0.654000X-0.654000X-0.654000X0.654000X-0.654000X0*%
%ADD11C,1.512000*%
%ADD12R,1.665000X1.665000*%
%ADD13C,1.665000*%
%ADD14C,4.650000*%
%ADD15C,1.412000*%
G04 APERTURE END LIST*
D10*
%TO.C,J2*%
X205000000Y-101050000D03*
D11*
X203000000Y-101050000D03*
X201000000Y-101050000D03*
X199000000Y-101050000D03*
%TD*%
D12*
%TO.C,U1*%
X214700000Y-102400000D03*
D13*
X214700000Y-99860000D03*
X214700000Y-97320000D03*
X214700000Y-94780000D03*
X214700000Y-92240000D03*
X214700000Y-89700000D03*
X214700000Y-87160000D03*
X214700000Y-84620000D03*
X214700000Y-82080000D03*
X214700000Y-79540000D03*
X214700000Y-77000000D03*
X214700000Y-74460000D03*
X214700000Y-71920000D03*
X214700000Y-69380000D03*
X214700000Y-66840000D03*
X214700000Y-64300000D03*
X214700000Y-61760000D03*
X214700000Y-59220000D03*
D12*
X189300000Y-102400000D03*
D13*
X189300000Y-99860000D03*
X189300000Y-97320000D03*
X189300000Y-94780000D03*
X189300000Y-92240000D03*
X189300000Y-89700000D03*
X189300000Y-87160000D03*
X189300000Y-84620000D03*
X189300000Y-82080000D03*
X189300000Y-79540000D03*
X189300000Y-77000000D03*
X189300000Y-74460000D03*
X189300000Y-71920000D03*
X189300000Y-69380000D03*
X189300000Y-66840000D03*
X189300000Y-64300000D03*
X189300000Y-61760000D03*
X189300000Y-59220000D03*
D14*
X190000000Y-54323000D03*
X214000000Y-54323000D03*
X214000000Y-107323000D03*
X190000000Y-107323000D03*
%TD*%
D15*
%TO.C,J3*%
X204200000Y-55100000D03*
X202700000Y-55100000D03*
X201200000Y-55100000D03*
X199700000Y-55100000D03*
%TD*%
M02*
