%TF.GenerationSoftware,KiCad,Pcbnew,9.0.4*%
%TF.CreationDate,2025-10-18T11:14:00+02:00*%
%TF.ProjectId,versie_2,76657273-6965-45f3-922e-6b696361645f,rev?*%
%TF.SameCoordinates,Original*%
%TF.FileFunction,Legend,Top*%
%TF.FilePolarity,Positive*%
%FSLAX46Y46*%
G04 Gerber Fmt 4.6, Leading zero omitted, Abs format (unit mm)*
G04 Created by KiCad (PCBNEW 9.0.4) date 2025-10-18 11:14:00*
%MOMM*%
%LPD*%
G01*
G04 APERTURE LIST*
%ADD10C,0.254000*%
%ADD11C,0.200000*%
%ADD12C,0.100000*%
G04 APERTURE END LIST*
D10*
X201404318Y-77767619D02*
X202432413Y-77767619D01*
X202432413Y-77767619D02*
X202553365Y-77707142D01*
X202553365Y-77707142D02*
X202613842Y-77646666D01*
X202613842Y-77646666D02*
X202674318Y-77525714D01*
X202674318Y-77525714D02*
X202674318Y-77283809D01*
X202674318Y-77283809D02*
X202613842Y-77162857D01*
X202613842Y-77162857D02*
X202553365Y-77102380D01*
X202553365Y-77102380D02*
X202432413Y-77041904D01*
X202432413Y-77041904D02*
X201404318Y-77041904D01*
X202674318Y-75771904D02*
X202674318Y-76497619D01*
X202674318Y-76134762D02*
X201404318Y-76134762D01*
X201404318Y-76134762D02*
X201585746Y-76255714D01*
X201585746Y-76255714D02*
X201706699Y-76376666D01*
X201706699Y-76376666D02*
X201767175Y-76497619D01*
D11*
%TO.C,U1*%
X198801000Y-51500000D02*
X192995000Y-51500000D01*
X192995000Y-51500000D02*
X192995000Y-55822000D01*
D12*
X216500000Y-51810000D02*
X216500000Y-109810000D01*
X187500000Y-51810000D02*
X216500000Y-51810000D01*
D11*
X198801000Y-55822000D02*
X198801000Y-51500000D01*
X192995000Y-55822000D02*
X198801000Y-55822000D01*
X211000000Y-84620000D02*
X193000000Y-84620000D01*
X193000000Y-84620000D02*
X193000000Y-102400000D01*
D12*
X216900000Y-102310000D02*
X216900000Y-102310000D01*
D11*
X211000000Y-102400000D02*
X211000000Y-84620000D01*
X193000000Y-102400000D02*
X211000000Y-102400000D01*
D12*
X216900000Y-102410000D02*
X216900000Y-102410000D01*
X216500000Y-109810000D02*
X187500000Y-109810000D01*
X187500000Y-109810000D02*
X187500000Y-51810000D01*
X216900000Y-102310000D02*
G75*
G02*
X216900000Y-102410000I0J-50000D01*
G01*
X216900000Y-102410000D02*
G75*
G02*
X216900000Y-102310000I0J50000D01*
G01*
%TD*%
M02*
