%TF.GenerationSoftware,KiCad,Pcbnew,9.0.5*%
%TF.CreationDate,2025-11-14T09:38:31+01:00*%
%TF.ProjectId,versie_2,76657273-6965-45f3-922e-6b696361645f,rev?*%
%TF.SameCoordinates,Original*%
%TF.FileFunction,Legend,Top*%
%TF.FilePolarity,Positive*%
%FSLAX46Y46*%
G04 Gerber Fmt 4.6, Leading zero omitted, Abs format (unit mm)*
G04 Created by KiCad (PCBNEW 9.0.5) date 2025-11-14 09:38:31*
%MOMM*%
%LPD*%
G01*
G04 APERTURE LIST*
%ADD10C,0.100000*%
%ADD11C,0.254000*%
%ADD12C,0.127000*%
%ADD13C,0.200000*%
G04 APERTURE END LIST*
D10*
X133721027Y-98922419D02*
X134054360Y-99922419D01*
X134054360Y-99922419D02*
X134387693Y-98922419D01*
X135292455Y-99827180D02*
X135244836Y-99874800D01*
X135244836Y-99874800D02*
X135101979Y-99922419D01*
X135101979Y-99922419D02*
X135006741Y-99922419D01*
X135006741Y-99922419D02*
X134863884Y-99874800D01*
X134863884Y-99874800D02*
X134768646Y-99779561D01*
X134768646Y-99779561D02*
X134721027Y-99684323D01*
X134721027Y-99684323D02*
X134673408Y-99493847D01*
X134673408Y-99493847D02*
X134673408Y-99350990D01*
X134673408Y-99350990D02*
X134721027Y-99160514D01*
X134721027Y-99160514D02*
X134768646Y-99065276D01*
X134768646Y-99065276D02*
X134863884Y-98970038D01*
X134863884Y-98970038D02*
X135006741Y-98922419D01*
X135006741Y-98922419D02*
X135101979Y-98922419D01*
X135101979Y-98922419D02*
X135244836Y-98970038D01*
X135244836Y-98970038D02*
X135292455Y-99017657D01*
X136292455Y-99827180D02*
X136244836Y-99874800D01*
X136244836Y-99874800D02*
X136101979Y-99922419D01*
X136101979Y-99922419D02*
X136006741Y-99922419D01*
X136006741Y-99922419D02*
X135863884Y-99874800D01*
X135863884Y-99874800D02*
X135768646Y-99779561D01*
X135768646Y-99779561D02*
X135721027Y-99684323D01*
X135721027Y-99684323D02*
X135673408Y-99493847D01*
X135673408Y-99493847D02*
X135673408Y-99350990D01*
X135673408Y-99350990D02*
X135721027Y-99160514D01*
X135721027Y-99160514D02*
X135768646Y-99065276D01*
X135768646Y-99065276D02*
X135863884Y-98970038D01*
X135863884Y-98970038D02*
X136006741Y-98922419D01*
X136006741Y-98922419D02*
X136101979Y-98922419D01*
X136101979Y-98922419D02*
X136244836Y-98970038D01*
X136244836Y-98970038D02*
X136292455Y-99017657D01*
X134387693Y-92970038D02*
X134292455Y-92922419D01*
X134292455Y-92922419D02*
X134149598Y-92922419D01*
X134149598Y-92922419D02*
X134006741Y-92970038D01*
X134006741Y-92970038D02*
X133911503Y-93065276D01*
X133911503Y-93065276D02*
X133863884Y-93160514D01*
X133863884Y-93160514D02*
X133816265Y-93350990D01*
X133816265Y-93350990D02*
X133816265Y-93493847D01*
X133816265Y-93493847D02*
X133863884Y-93684323D01*
X133863884Y-93684323D02*
X133911503Y-93779561D01*
X133911503Y-93779561D02*
X134006741Y-93874800D01*
X134006741Y-93874800D02*
X134149598Y-93922419D01*
X134149598Y-93922419D02*
X134244836Y-93922419D01*
X134244836Y-93922419D02*
X134387693Y-93874800D01*
X134387693Y-93874800D02*
X134435312Y-93827180D01*
X134435312Y-93827180D02*
X134435312Y-93493847D01*
X134435312Y-93493847D02*
X134244836Y-93493847D01*
X134863884Y-93922419D02*
X134863884Y-92922419D01*
X134863884Y-92922419D02*
X135435312Y-93922419D01*
X135435312Y-93922419D02*
X135435312Y-92922419D01*
X135911503Y-93922419D02*
X135911503Y-92922419D01*
X135911503Y-92922419D02*
X136149598Y-92922419D01*
X136149598Y-92922419D02*
X136292455Y-92970038D01*
X136292455Y-92970038D02*
X136387693Y-93065276D01*
X136387693Y-93065276D02*
X136435312Y-93160514D01*
X136435312Y-93160514D02*
X136482931Y-93350990D01*
X136482931Y-93350990D02*
X136482931Y-93493847D01*
X136482931Y-93493847D02*
X136435312Y-93684323D01*
X136435312Y-93684323D02*
X136387693Y-93779561D01*
X136387693Y-93779561D02*
X136292455Y-93874800D01*
X136292455Y-93874800D02*
X136149598Y-93922419D01*
X136149598Y-93922419D02*
X135911503Y-93922419D01*
X134435312Y-97922419D02*
X134101979Y-97446228D01*
X133863884Y-97922419D02*
X133863884Y-96922419D01*
X133863884Y-96922419D02*
X134244836Y-96922419D01*
X134244836Y-96922419D02*
X134340074Y-96970038D01*
X134340074Y-96970038D02*
X134387693Y-97017657D01*
X134387693Y-97017657D02*
X134435312Y-97112895D01*
X134435312Y-97112895D02*
X134435312Y-97255752D01*
X134435312Y-97255752D02*
X134387693Y-97350990D01*
X134387693Y-97350990D02*
X134340074Y-97398609D01*
X134340074Y-97398609D02*
X134244836Y-97446228D01*
X134244836Y-97446228D02*
X133863884Y-97446228D01*
X134768646Y-96922419D02*
X135435312Y-97922419D01*
X135435312Y-96922419D02*
X134768646Y-97922419D01*
X133721027Y-94922419D02*
X134292455Y-94922419D01*
X134006741Y-95922419D02*
X134006741Y-94922419D01*
X134530551Y-94922419D02*
X135197217Y-95922419D01*
X135197217Y-94922419D02*
X134530551Y-95922419D01*
X148480038Y-100722306D02*
X148432419Y-100817544D01*
X148432419Y-100817544D02*
X148432419Y-100960401D01*
X148432419Y-100960401D02*
X148480038Y-101103258D01*
X148480038Y-101103258D02*
X148575276Y-101198496D01*
X148575276Y-101198496D02*
X148670514Y-101246115D01*
X148670514Y-101246115D02*
X148860990Y-101293734D01*
X148860990Y-101293734D02*
X149003847Y-101293734D01*
X149003847Y-101293734D02*
X149194323Y-101246115D01*
X149194323Y-101246115D02*
X149289561Y-101198496D01*
X149289561Y-101198496D02*
X149384800Y-101103258D01*
X149384800Y-101103258D02*
X149432419Y-100960401D01*
X149432419Y-100960401D02*
X149432419Y-100865163D01*
X149432419Y-100865163D02*
X149384800Y-100722306D01*
X149384800Y-100722306D02*
X149337180Y-100674687D01*
X149337180Y-100674687D02*
X149003847Y-100674687D01*
X149003847Y-100674687D02*
X149003847Y-100865163D01*
X148956228Y-100055639D02*
X149432419Y-100055639D01*
X148432419Y-100388972D02*
X148956228Y-100055639D01*
X148956228Y-100055639D02*
X148432419Y-99722306D01*
X149051466Y-99388972D02*
X149051466Y-98627068D01*
X148480038Y-97627068D02*
X148432419Y-97722306D01*
X148432419Y-97722306D02*
X148432419Y-97865163D01*
X148432419Y-97865163D02*
X148480038Y-98008020D01*
X148480038Y-98008020D02*
X148575276Y-98103258D01*
X148575276Y-98103258D02*
X148670514Y-98150877D01*
X148670514Y-98150877D02*
X148860990Y-98198496D01*
X148860990Y-98198496D02*
X149003847Y-98198496D01*
X149003847Y-98198496D02*
X149194323Y-98150877D01*
X149194323Y-98150877D02*
X149289561Y-98103258D01*
X149289561Y-98103258D02*
X149384800Y-98008020D01*
X149384800Y-98008020D02*
X149432419Y-97865163D01*
X149432419Y-97865163D02*
X149432419Y-97769925D01*
X149432419Y-97769925D02*
X149384800Y-97627068D01*
X149384800Y-97627068D02*
X149337180Y-97579449D01*
X149337180Y-97579449D02*
X149003847Y-97579449D01*
X149003847Y-97579449D02*
X149003847Y-97769925D01*
X149432419Y-97150877D02*
X148432419Y-97150877D01*
X148432419Y-97150877D02*
X148432419Y-96769925D01*
X148432419Y-96769925D02*
X148480038Y-96674687D01*
X148480038Y-96674687D02*
X148527657Y-96627068D01*
X148527657Y-96627068D02*
X148622895Y-96579449D01*
X148622895Y-96579449D02*
X148765752Y-96579449D01*
X148765752Y-96579449D02*
X148860990Y-96627068D01*
X148860990Y-96627068D02*
X148908609Y-96674687D01*
X148908609Y-96674687D02*
X148956228Y-96769925D01*
X148956228Y-96769925D02*
X148956228Y-97150877D01*
X149384800Y-96198496D02*
X149432419Y-96055639D01*
X149432419Y-96055639D02*
X149432419Y-95817544D01*
X149432419Y-95817544D02*
X149384800Y-95722306D01*
X149384800Y-95722306D02*
X149337180Y-95674687D01*
X149337180Y-95674687D02*
X149241942Y-95627068D01*
X149241942Y-95627068D02*
X149146704Y-95627068D01*
X149146704Y-95627068D02*
X149051466Y-95674687D01*
X149051466Y-95674687D02*
X149003847Y-95722306D01*
X149003847Y-95722306D02*
X148956228Y-95817544D01*
X148956228Y-95817544D02*
X148908609Y-96008020D01*
X148908609Y-96008020D02*
X148860990Y-96103258D01*
X148860990Y-96103258D02*
X148813371Y-96150877D01*
X148813371Y-96150877D02*
X148718133Y-96198496D01*
X148718133Y-96198496D02*
X148622895Y-96198496D01*
X148622895Y-96198496D02*
X148527657Y-96150877D01*
X148527657Y-96150877D02*
X148480038Y-96103258D01*
X148480038Y-96103258D02*
X148432419Y-96008020D01*
X148432419Y-96008020D02*
X148432419Y-95769925D01*
X148432419Y-95769925D02*
X148480038Y-95627068D01*
X148432419Y-94769925D02*
X148432419Y-94960401D01*
X148432419Y-94960401D02*
X148480038Y-95055639D01*
X148480038Y-95055639D02*
X148527657Y-95103258D01*
X148527657Y-95103258D02*
X148670514Y-95198496D01*
X148670514Y-95198496D02*
X148860990Y-95246115D01*
X148860990Y-95246115D02*
X149241942Y-95246115D01*
X149241942Y-95246115D02*
X149337180Y-95198496D01*
X149337180Y-95198496D02*
X149384800Y-95150877D01*
X149384800Y-95150877D02*
X149432419Y-95055639D01*
X149432419Y-95055639D02*
X149432419Y-94865163D01*
X149432419Y-94865163D02*
X149384800Y-94769925D01*
X149384800Y-94769925D02*
X149337180Y-94722306D01*
X149337180Y-94722306D02*
X149241942Y-94674687D01*
X149241942Y-94674687D02*
X149003847Y-94674687D01*
X149003847Y-94674687D02*
X148908609Y-94722306D01*
X148908609Y-94722306D02*
X148860990Y-94769925D01*
X148860990Y-94769925D02*
X148813371Y-94865163D01*
X148813371Y-94865163D02*
X148813371Y-95055639D01*
X148813371Y-95055639D02*
X148860990Y-95150877D01*
X148860990Y-95150877D02*
X148908609Y-95198496D01*
X148908609Y-95198496D02*
X149003847Y-95246115D01*
X149432419Y-94246115D02*
X148432419Y-94246115D01*
X148432419Y-94246115D02*
X149146704Y-93912782D01*
X149146704Y-93912782D02*
X148432419Y-93579449D01*
X148432419Y-93579449D02*
X149432419Y-93579449D01*
X148432419Y-93246115D02*
X149432419Y-92912782D01*
X149432419Y-92912782D02*
X148432419Y-92579449D01*
X148527657Y-92293734D02*
X148480038Y-92246115D01*
X148480038Y-92246115D02*
X148432419Y-92150877D01*
X148432419Y-92150877D02*
X148432419Y-91912782D01*
X148432419Y-91912782D02*
X148480038Y-91817544D01*
X148480038Y-91817544D02*
X148527657Y-91769925D01*
X148527657Y-91769925D02*
X148622895Y-91722306D01*
X148622895Y-91722306D02*
X148718133Y-91722306D01*
X148718133Y-91722306D02*
X148860990Y-91769925D01*
X148860990Y-91769925D02*
X149432419Y-92341353D01*
X149432419Y-92341353D02*
X149432419Y-91722306D01*
D11*
X110874318Y-93257619D02*
X111902413Y-93257619D01*
X111902413Y-93257619D02*
X112023365Y-93197142D01*
X112023365Y-93197142D02*
X112083842Y-93136666D01*
X112083842Y-93136666D02*
X112144318Y-93015714D01*
X112144318Y-93015714D02*
X112144318Y-92773809D01*
X112144318Y-92773809D02*
X112083842Y-92652857D01*
X112083842Y-92652857D02*
X112023365Y-92592380D01*
X112023365Y-92592380D02*
X111902413Y-92531904D01*
X111902413Y-92531904D02*
X110874318Y-92531904D01*
X112144318Y-91261904D02*
X112144318Y-91987619D01*
X112144318Y-91624762D02*
X110874318Y-91624762D01*
X110874318Y-91624762D02*
X111055746Y-91745714D01*
X111055746Y-91745714D02*
X111176699Y-91866666D01*
X111176699Y-91866666D02*
X111237175Y-91987619D01*
D12*
%TO.C,J2*%
X131010000Y-109400000D02*
X131010000Y-83700000D01*
X166810000Y-83700000D02*
X131010000Y-83700000D01*
X166810000Y-109400000D02*
X131010000Y-109400000D01*
X166810000Y-109400000D02*
X166810000Y-83700000D01*
D10*
X136010000Y-87000000D02*
G75*
G02*
X132010000Y-87000000I-2000000J0D01*
G01*
X132010000Y-87000000D02*
G75*
G02*
X136010000Y-87000000I2000000J0D01*
G01*
X136010000Y-106100000D02*
G75*
G02*
X132010000Y-106100000I-2000000J0D01*
G01*
X132010000Y-106100000D02*
G75*
G02*
X136010000Y-106100000I2000000J0D01*
G01*
X165810000Y-87000000D02*
G75*
G02*
X161810000Y-87000000I-2000000J0D01*
G01*
X161810000Y-87000000D02*
G75*
G02*
X165810000Y-87000000I2000000J0D01*
G01*
X165810000Y-106100000D02*
G75*
G02*
X161810000Y-106100000I-2000000J0D01*
G01*
X161810000Y-106100000D02*
G75*
G02*
X165810000Y-106100000I2000000J0D01*
G01*
%TO.C,U1*%
X96970000Y-67300000D02*
X125970000Y-67300000D01*
X96970000Y-125300000D02*
X96970000Y-67300000D01*
D13*
X102465000Y-66990000D02*
X102465000Y-71312000D01*
X102465000Y-71312000D02*
X108271000Y-71312000D01*
X102470000Y-100110000D02*
X102470000Y-117890000D01*
X102470000Y-117890000D02*
X120470000Y-117890000D01*
X108271000Y-66990000D02*
X102465000Y-66990000D01*
X108271000Y-71312000D02*
X108271000Y-66990000D01*
X120470000Y-100110000D02*
X102470000Y-100110000D01*
X120470000Y-117890000D02*
X120470000Y-100110000D01*
D10*
X125970000Y-67300000D02*
X125970000Y-125300000D01*
X125970000Y-125300000D02*
X96970000Y-125300000D01*
X126370000Y-117800000D02*
X126370000Y-117800000D01*
X126370000Y-117900000D02*
X126370000Y-117900000D01*
X126370000Y-117800000D02*
G75*
G02*
X126370000Y-117900000I0J-50000D01*
G01*
X126370000Y-117900000D02*
G75*
G02*
X126370000Y-117800000I0J50000D01*
G01*
%TD*%
M02*
