M48
; DRILL file {KiCad 9.0.5} date 2025-11-14T09:38:34+0100
; FORMAT={-:-/ absolute / metric / decimal}
; #@! TF.CreationDate,2025-11-14T09:38:34+01:00
; #@! TF.GenerationSoftware,Kicad,Pcbnew,9.0.5
; #@! TF.FileFunction,Plated,1,2,PTH
FMAT,2
METRIC
; #@! TA.AperFunction,Plated,PTH,ComponentDrill
T1C0.700
; #@! TA.AperFunction,Plated,PTH,ComponentDrill
T2C0.800
; #@! TA.AperFunction,Plated,PTH,ComponentDrill
T3C1.110
; #@! TA.AperFunction,Plated,PTH,ComponentDrill
T4C3.100
%
G90
G05
T1
X109.17Y-70.59
X110.67Y-70.59
X112.17Y-70.59
X113.67Y-70.59
T2
X132.019Y-92.727
X132.019Y-95.275
X132.019Y-97.822
X132.019Y-100.369
T3
X98.77Y-74.71
X98.77Y-77.25
X98.77Y-79.79
X98.77Y-82.33
X98.77Y-84.87
X98.77Y-87.41
X98.77Y-89.95
X98.77Y-92.49
X98.77Y-95.03
X98.77Y-97.57
X98.77Y-100.11
X98.77Y-102.65
X98.77Y-105.19
X98.77Y-107.73
X98.77Y-110.27
X98.77Y-112.81
X98.77Y-115.35
X98.77Y-117.89
X124.17Y-74.71
X124.17Y-77.25
X124.17Y-79.79
X124.17Y-82.33
X124.17Y-84.87
X124.17Y-87.41
X124.17Y-89.95
X124.17Y-92.49
X124.17Y-95.03
X124.17Y-97.57
X124.17Y-100.11
X124.17Y-102.65
X124.17Y-105.19
X124.17Y-107.73
X124.17Y-110.27
X124.17Y-112.81
X124.17Y-115.35
X124.17Y-117.89
T4
X99.47Y-69.813
X99.47Y-122.813
X123.47Y-69.813
X123.47Y-122.813
X132.391Y-69.427
X132.391Y-118.546
X190.477Y-69.559
X190.477Y-118.678
M30
