%TF.GenerationSoftware,KiCad,Pcbnew,9.0.5*%
%TF.CreationDate,2025-11-14T09:38:31+01:00*%
%TF.ProjectId,versie_2,76657273-6965-45f3-922e-6b696361645f,rev?*%
%TF.SameCoordinates,Original*%
%TF.FileFunction,Copper,L2,Bot*%
%TF.FilePolarity,Positive*%
%FSLAX46Y46*%
G04 Gerber Fmt 4.6, Leading zero omitted, Abs format (unit mm)*
G04 Created by KiCad (PCBNEW 9.0.5) date 2025-11-14 09:38:31*
%MOMM*%
%LPD*%
G01*
G04 APERTURE LIST*
%TA.AperFunction,ComponentPad*%
%ADD10C,4.650000*%
%TD*%
%TA.AperFunction,ComponentPad*%
%ADD11R,1.308000X1.308000*%
%TD*%
%TA.AperFunction,ComponentPad*%
%ADD12C,1.308000*%
%TD*%
%TA.AperFunction,ComponentPad*%
%ADD13R,1.665000X1.665000*%
%TD*%
%TA.AperFunction,ComponentPad*%
%ADD14C,1.665000*%
%TD*%
%TA.AperFunction,ComponentPad*%
%ADD15C,1.208000*%
%TD*%
%TA.AperFunction,Conductor*%
%ADD16C,0.200000*%
%TD*%
G04 APERTURE END LIST*
D10*
%TO.P,,MH3,MH3*%
%TO.N,unconnected-(U1-PadMH3)*%
X190476969Y-118678331D03*
%TD*%
D11*
%TO.P,J2,1,Pin_1*%
%TO.N,GND*%
X132019239Y-92727331D03*
D12*
%TO.P,J2,2,Pin_2*%
%TO.N,TX*%
X132019239Y-95274708D03*
%TO.P,J2,3,Pin_3*%
%TO.N,RX*%
X132019239Y-97822085D03*
%TO.P,J2,4,Pin_4*%
%TO.N,vcc*%
X132019239Y-100369462D03*
%TD*%
D10*
%TO.P,,MH3,MH3*%
%TO.N,unconnected-(U1-PadMH3)*%
X190476969Y-69559049D03*
%TD*%
%TO.P,,MH3,MH3*%
%TO.N,unconnected-(U1-PadMH3)*%
X132390946Y-118546467D03*
%TD*%
%TO.P,,MH3,MH3*%
%TO.N,unconnected-(U1-PadMH3)*%
X132390946Y-69427185D03*
%TD*%
D13*
%TO.P,U1,1,IO3/RXD*%
%TO.N,unconnected-(U1-IO3{slash}RXD-Pad1)*%
X124170000Y-117890000D03*
D14*
%TO.P,U1,2,IO1/TXD*%
%TO.N,unconnected-(U1-IO1{slash}TXD-Pad2)*%
X124170000Y-115350000D03*
%TO.P,U1,3,IO25/D2*%
%TO.N,unconnected-(U1-IO25{slash}D2-Pad3)*%
X124170000Y-112810000D03*
%TO.P,U1,4,IO26/D3*%
%TO.N,RX_1*%
X124170000Y-110270000D03*
%TO.P,U1,5,IO27/D4*%
%TO.N,TX_1*%
X124170000Y-107730000D03*
%TO.P,U1,6,IO9/D5*%
%TO.N,unconnected-(U1-IO9{slash}D5-Pad6)*%
X124170000Y-105190000D03*
%TO.P,U1,7,IO10/D6*%
%TO.N,unconnected-(U1-IO10{slash}D6-Pad7)*%
X124170000Y-102650000D03*
%TO.P,U1,8,IO13/D7*%
%TO.N,unconnected-(U1-IO13{slash}D7-Pad8)*%
X124170000Y-100110000D03*
%TO.P,U1,9,IO5/D8*%
%TO.N,unconnected-(U1-IO5{slash}D8-Pad9)*%
X124170000Y-97570000D03*
%TO.P,U1,10,IO2/D9*%
%TO.N,unconnected-(U1-IO2{slash}D9-Pad10)*%
X124170000Y-95030000D03*
%TO.P,U1,11,IO6/CLK*%
%TO.N,unconnected-(U1-IO6{slash}CLK-Pad11)*%
X124170000Y-92490000D03*
%TO.P,U1,12,IO7/SD0*%
%TO.N,unconnected-(U1-IO7{slash}SD0-Pad12)*%
X124170000Y-89950000D03*
%TO.P,U1,13,IO8/SD1*%
%TO.N,unconnected-(U1-IO8{slash}SD1-Pad13)*%
X124170000Y-87410000D03*
%TO.P,U1,14,IO11/CMD*%
%TO.N,unconnected-(U1-IO11{slash}CMD-Pad14)*%
X124170000Y-84870000D03*
%TO.P,U1,15,GND*%
%TO.N,GND*%
X124170000Y-82330000D03*
%TO.P,U1,16,AREF*%
%TO.N,unconnected-(U1-AREF-Pad16)*%
X124170000Y-79790000D03*
%TO.P,U1,17,3V3*%
%TO.N,unconnected-(U1-3V3-Pad17)*%
X124170000Y-77250000D03*
%TO.P,U1,18,VCC*%
%TO.N,vcc*%
X124170000Y-74710000D03*
D13*
%TO.P,U1,19,A0/IO36*%
%TO.N,unconnected-(U1-A0{slash}IO36-Pad19)*%
X98770000Y-117890000D03*
D14*
%TO.P,U1,20,A1/IO39*%
%TO.N,unconnected-(U1-A1{slash}IO39-Pad20)*%
X98770000Y-115350000D03*
%TO.P,U1,21,A2/IO34*%
%TO.N,unconnected-(U1-A2{slash}IO34-Pad21)*%
X98770000Y-112810000D03*
%TO.P,U1,22,A3/IO35*%
%TO.N,unconnected-(U1-A3{slash}IO35-Pad22)*%
X98770000Y-110270000D03*
%TO.P,U1,23,A4/IO15*%
%TO.N,unconnected-(U1-A4{slash}IO15-Pad23)*%
X98770000Y-107730000D03*
%TO.P,U1,24,NC*%
%TO.N,unconnected-(U1-NC-Pad24)*%
X98770000Y-105190000D03*
%TO.P,U1,25,IO0*%
%TO.N,unconnected-(U1-IO0-Pad25)*%
X98770000Y-102650000D03*
%TO.P,U1,26,SCK/IO18*%
%TO.N,unconnected-(U1-SCK{slash}IO18-Pad26)*%
X98770000Y-100110000D03*
%TO.P,U1,27,MOSI/IO23*%
%TO.N,unconnected-(U1-MOSI{slash}IO23-Pad27)*%
X98770000Y-97570000D03*
%TO.P,U1,28,MISO/IO19*%
%TO.N,unconnected-(U1-MISO{slash}IO19-Pad28)*%
X98770000Y-95030000D03*
%TO.P,U1,29,SDA/IO21*%
%TO.N,unconnected-(U1-SDA{slash}IO21-Pad29)*%
X98770000Y-92490000D03*
%TO.P,U1,30,SCL/IO22*%
%TO.N,unconnected-(U1-SCL{slash}IO22-Pad30)*%
X98770000Y-89950000D03*
%TO.P,U1,31,BCLK/IO14*%
%TO.N,unconnected-(U1-BCLK{slash}IO14-Pad31)*%
X98770000Y-87410000D03*
%TO.P,U1,32,MCLK/IO12*%
%TO.N,unconnected-(U1-MCLK{slash}IO12-Pad32)*%
X98770000Y-84870000D03*
%TO.P,U1,33,DO/IO4*%
%TO.N,unconnected-(U1-DO{slash}IO4-Pad33)*%
X98770000Y-82330000D03*
%TO.P,U1,34,DI/IO16*%
%TO.N,RX*%
X98770000Y-79790000D03*
%TO.P,U1,35,LRCK/IO17*%
%TO.N,TX*%
X98770000Y-77250000D03*
%TO.P,U1,36,RST*%
%TO.N,unconnected-(U1-RST-Pad36)*%
X98770000Y-74710000D03*
D10*
%TO.P,U1,MH1,MH1*%
%TO.N,unconnected-(U1-PadMH1)*%
X99470000Y-69813000D03*
%TO.P,U1,MH2,MH2*%
%TO.N,unconnected-(U1-PadMH2)*%
X123470000Y-69813000D03*
%TO.P,U1,MH3,MH3*%
%TO.N,unconnected-(U1-PadMH3)*%
X123470000Y-122813000D03*
%TO.P,U1,MH4,MH4*%
%TO.N,unconnected-(U1-PadMH4)*%
X99470000Y-122813000D03*
%TD*%
D15*
%TO.P,J3,1,1*%
%TO.N,TX_1*%
X113670000Y-70590000D03*
%TO.P,J3,2,2*%
%TO.N,RX_1*%
X112170000Y-70590000D03*
%TO.P,J3,3,3*%
%TO.N,GND*%
X110670000Y-70590000D03*
%TO.P,J3,4,4*%
%TO.N,vcc*%
X109170000Y-70590000D03*
%TD*%
D16*
%TO.N,GND*%
X110669997Y-70490000D02*
X110670000Y-70489997D01*
X115850000Y-82330000D02*
X124170000Y-82330000D01*
X132019239Y-90179239D02*
X124170000Y-82330000D01*
X111575000Y-69685000D02*
X114044864Y-69685000D01*
X114810000Y-81290000D02*
X115850000Y-82330000D01*
X114810000Y-70450136D02*
X114810000Y-81290000D01*
X110670000Y-70590000D02*
X111575000Y-69685000D01*
X114044864Y-69685000D02*
X114810000Y-70450136D01*
X132019239Y-92727331D02*
X132019239Y-90179239D01*
%TO.N,vcc*%
X132974239Y-83514239D02*
X124170000Y-74710000D01*
X110476000Y-69284000D02*
X118744000Y-69284000D01*
X132019239Y-100369462D02*
X132974239Y-99414462D01*
X109170000Y-70590000D02*
X110476000Y-69284000D01*
X109169997Y-70490000D02*
X109170000Y-70489997D01*
X118744000Y-69284000D02*
X124170000Y-74710000D01*
X132974239Y-99414462D02*
X132974239Y-83514239D01*
%TO.N,TX_1*%
X113670000Y-97230000D02*
X124170000Y-107730000D01*
X113670000Y-70590000D02*
X113670000Y-97230000D01*
X113669999Y-70490000D02*
X113669999Y-70690000D01*
X113669999Y-70690000D02*
X113670000Y-70689999D01*
%TO.N,RX_1*%
X112170000Y-70590000D02*
X112170000Y-98270000D01*
X112170000Y-98270000D02*
X124170000Y-110270000D01*
%TD*%
M02*
