%TF.GenerationSoftware,KiCad,Pcbnew,9.0.4*%
%TF.CreationDate,2025-10-18T11:13:59+02:00*%
%TF.ProjectId,versie_2,76657273-6965-45f3-922e-6b696361645f,rev?*%
%TF.SameCoordinates,Original*%
%TF.FileFunction,Copper,L1,Top*%
%TF.FilePolarity,Positive*%
%FSLAX46Y46*%
G04 Gerber Fmt 4.6, Leading zero omitted, Abs format (unit mm)*
G04 Created by KiCad (PCBNEW 9.0.4) date 2025-10-18 11:13:59*
%MOMM*%
%LPD*%
G01*
G04 APERTURE LIST*
%TA.AperFunction,ComponentPad*%
%ADD10R,1.308000X1.308000*%
%TD*%
%TA.AperFunction,ComponentPad*%
%ADD11C,1.308000*%
%TD*%
%TA.AperFunction,ComponentPad*%
%ADD12R,1.665000X1.665000*%
%TD*%
%TA.AperFunction,ComponentPad*%
%ADD13C,1.665000*%
%TD*%
%TA.AperFunction,ComponentPad*%
%ADD14C,4.650000*%
%TD*%
%TA.AperFunction,ComponentPad*%
%ADD15C,1.208000*%
%TD*%
%TA.AperFunction,Conductor*%
%ADD16C,0.200000*%
%TD*%
G04 APERTURE END LIST*
D10*
%TO.P,J2,1,Pin_1*%
%TO.N,GND*%
X205000000Y-101050000D03*
D11*
%TO.P,J2,2,Pin_2*%
%TO.N,TX*%
X203000000Y-101050000D03*
%TO.P,J2,3,Pin_3*%
%TO.N,RX*%
X201000000Y-101050000D03*
%TO.P,J2,4,Pin_4*%
%TO.N,vcc*%
X199000000Y-101050000D03*
%TD*%
D12*
%TO.P,U1,1,IO3/RXD*%
%TO.N,unconnected-(U1-IO3{slash}RXD-Pad1)*%
X214700000Y-102400000D03*
D13*
%TO.P,U1,2,IO1/TXD*%
%TO.N,unconnected-(U1-IO1{slash}TXD-Pad2)*%
X214700000Y-99860000D03*
%TO.P,U1,3,IO25/D2*%
%TO.N,unconnected-(U1-IO25{slash}D2-Pad3)*%
X214700000Y-97320000D03*
%TO.P,U1,4,IO26/D3*%
%TO.N,RX_1*%
X214700000Y-94780000D03*
%TO.P,U1,5,IO27/D4*%
%TO.N,TX_1*%
X214700000Y-92240000D03*
%TO.P,U1,6,IO9/D5*%
%TO.N,unconnected-(U1-IO9{slash}D5-Pad6)*%
X214700000Y-89700000D03*
%TO.P,U1,7,IO10/D6*%
%TO.N,unconnected-(U1-IO10{slash}D6-Pad7)*%
X214700000Y-87160000D03*
%TO.P,U1,8,IO13/D7*%
%TO.N,unconnected-(U1-IO13{slash}D7-Pad8)*%
X214700000Y-84620000D03*
%TO.P,U1,9,IO5/D8*%
%TO.N,unconnected-(U1-IO5{slash}D8-Pad9)*%
X214700000Y-82080000D03*
%TO.P,U1,10,IO2/D9*%
%TO.N,unconnected-(U1-IO2{slash}D9-Pad10)*%
X214700000Y-79540000D03*
%TO.P,U1,11,IO6/CLK*%
%TO.N,unconnected-(U1-IO6{slash}CLK-Pad11)*%
X214700000Y-77000000D03*
%TO.P,U1,12,IO7/SD0*%
%TO.N,unconnected-(U1-IO7{slash}SD0-Pad12)*%
X214700000Y-74460000D03*
%TO.P,U1,13,IO8/SD1*%
%TO.N,unconnected-(U1-IO8{slash}SD1-Pad13)*%
X214700000Y-71920000D03*
%TO.P,U1,14,IO11/CMD*%
%TO.N,unconnected-(U1-IO11{slash}CMD-Pad14)*%
X214700000Y-69380000D03*
%TO.P,U1,15,GND*%
%TO.N,GND*%
X214700000Y-66840000D03*
%TO.P,U1,16,AREF*%
%TO.N,unconnected-(U1-AREF-Pad16)*%
X214700000Y-64300000D03*
%TO.P,U1,17,3V3*%
%TO.N,unconnected-(U1-3V3-Pad17)*%
X214700000Y-61760000D03*
%TO.P,U1,18,VCC*%
%TO.N,vcc*%
X214700000Y-59220000D03*
D12*
%TO.P,U1,19,A0/IO36*%
%TO.N,unconnected-(U1-A0{slash}IO36-Pad19)*%
X189300000Y-102400000D03*
D13*
%TO.P,U1,20,A1/IO39*%
%TO.N,unconnected-(U1-A1{slash}IO39-Pad20)*%
X189300000Y-99860000D03*
%TO.P,U1,21,A2/IO34*%
%TO.N,unconnected-(U1-A2{slash}IO34-Pad21)*%
X189300000Y-97320000D03*
%TO.P,U1,22,A3/IO35*%
%TO.N,unconnected-(U1-A3{slash}IO35-Pad22)*%
X189300000Y-94780000D03*
%TO.P,U1,23,A4/IO15*%
%TO.N,unconnected-(U1-A4{slash}IO15-Pad23)*%
X189300000Y-92240000D03*
%TO.P,U1,24,NC*%
%TO.N,unconnected-(U1-NC-Pad24)*%
X189300000Y-89700000D03*
%TO.P,U1,25,IO0*%
%TO.N,unconnected-(U1-IO0-Pad25)*%
X189300000Y-87160000D03*
%TO.P,U1,26,SCK/IO18*%
%TO.N,unconnected-(U1-SCK{slash}IO18-Pad26)*%
X189300000Y-84620000D03*
%TO.P,U1,27,MOSI/IO23*%
%TO.N,unconnected-(U1-MOSI{slash}IO23-Pad27)*%
X189300000Y-82080000D03*
%TO.P,U1,28,MISO/IO19*%
%TO.N,unconnected-(U1-MISO{slash}IO19-Pad28)*%
X189300000Y-79540000D03*
%TO.P,U1,29,SDA/IO21*%
%TO.N,unconnected-(U1-SDA{slash}IO21-Pad29)*%
X189300000Y-77000000D03*
%TO.P,U1,30,SCL/IO22*%
%TO.N,unconnected-(U1-SCL{slash}IO22-Pad30)*%
X189300000Y-74460000D03*
%TO.P,U1,31,BCLK/IO14*%
%TO.N,unconnected-(U1-BCLK{slash}IO14-Pad31)*%
X189300000Y-71920000D03*
%TO.P,U1,32,MCLK/IO12*%
%TO.N,unconnected-(U1-MCLK{slash}IO12-Pad32)*%
X189300000Y-69380000D03*
%TO.P,U1,33,DO/IO4*%
%TO.N,unconnected-(U1-DO{slash}IO4-Pad33)*%
X189300000Y-66840000D03*
%TO.P,U1,34,DI/IO16*%
%TO.N,RX*%
X189300000Y-64300000D03*
%TO.P,U1,35,LRCK/IO17*%
%TO.N,TX*%
X189300000Y-61760000D03*
%TO.P,U1,36,RST*%
%TO.N,unconnected-(U1-RST-Pad36)*%
X189300000Y-59220000D03*
D14*
%TO.P,U1,MH1,MH1*%
%TO.N,unconnected-(U1-PadMH1)*%
X190000000Y-54323000D03*
%TO.P,U1,MH2,MH2*%
%TO.N,unconnected-(U1-PadMH2)*%
X214000000Y-54323000D03*
%TO.P,U1,MH3,MH3*%
%TO.N,unconnected-(U1-PadMH3)*%
X214000000Y-107323000D03*
%TO.P,U1,MH4,MH4*%
%TO.N,unconnected-(U1-PadMH4)*%
X190000000Y-107323000D03*
%TD*%
D15*
%TO.P,J3,1,1*%
%TO.N,TX_1*%
X204200000Y-55100000D03*
%TO.P,J3,2,2*%
%TO.N,RX_1*%
X202700000Y-55100000D03*
%TO.P,J3,3,3*%
%TO.N,GND*%
X201200000Y-55100000D03*
%TO.P,J3,4,4*%
%TO.N,vcc*%
X199700000Y-55100000D03*
%TD*%
D16*
%TO.N,vcc*%
X189416988Y-57500000D02*
X196000000Y-57500000D01*
X196000000Y-57500000D02*
X197720000Y-59220000D01*
X188166500Y-93065500D02*
X188166500Y-58750488D01*
X188601000Y-93500000D02*
X188166500Y-93065500D01*
X191500000Y-93500000D02*
X188601000Y-93500000D01*
X197720000Y-59220000D02*
X214700000Y-59220000D01*
X188166500Y-58750488D02*
X189416988Y-57500000D01*
X199000000Y-101000000D02*
X191500000Y-93500000D01*
%TO.N,RX*%
X197000000Y-69500000D02*
X191800000Y-64300000D01*
X197000000Y-97000000D02*
X197000000Y-69500000D01*
X201000000Y-101000000D02*
X197000000Y-97000000D01*
X191800000Y-64300000D02*
X189300000Y-64300000D01*
%TO.N,TX*%
X193760000Y-61760000D02*
X189300000Y-61760000D01*
X198500000Y-66500000D02*
X193760000Y-61760000D01*
X198500000Y-96500000D02*
X198500000Y-66500000D01*
X203000000Y-101000000D02*
X198500000Y-96500000D01*
%TO.N,GND*%
X205000000Y-101000000D02*
X205000000Y-71250000D01*
X205000000Y-71250000D02*
X209750000Y-66500000D01*
X209750000Y-66500000D02*
X214360000Y-66500000D01*
X214360000Y-66500000D02*
X214700000Y-66840000D01*
%TD*%
M02*
