%TF.GenerationSoftware,KiCad,Pcbnew,9.0.4*%
%TF.CreationDate,2025-10-17T17:31:01+02:00*%
%TF.ProjectId,versie_2,76657273-6965-45f3-922e-6b696361645f,rev?*%
%TF.SameCoordinates,Original*%
%TF.FileFunction,Legend,Bot*%
%TF.FilePolarity,Positive*%
%FSLAX46Y46*%
G04 Gerber Fmt 4.6, Leading zero omitted, Abs format (unit mm)*
G04 Created by KiCad (PCBNEW 9.0.4) date 2025-10-17 17:31:01*
%MOMM*%
%LPD*%
G01*
G04 APERTURE LIST*
%ADD10C,0.150000*%
%ADD11C,0.100000*%
%ADD12C,0.152400*%
%ADD13C,0.508000*%
%ADD14C,0.127000*%
G04 APERTURE END LIST*
D10*
X202283331Y-54454819D02*
X202283331Y-55169104D01*
X202283331Y-55169104D02*
X202330950Y-55311961D01*
X202330950Y-55311961D02*
X202426188Y-55407200D01*
X202426188Y-55407200D02*
X202569045Y-55454819D01*
X202569045Y-55454819D02*
X202664283Y-55454819D01*
X201902378Y-54454819D02*
X201283331Y-54454819D01*
X201283331Y-54454819D02*
X201616664Y-54835771D01*
X201616664Y-54835771D02*
X201473807Y-54835771D01*
X201473807Y-54835771D02*
X201378569Y-54883390D01*
X201378569Y-54883390D02*
X201330950Y-54931009D01*
X201330950Y-54931009D02*
X201283331Y-55026247D01*
X201283331Y-55026247D02*
X201283331Y-55264342D01*
X201283331Y-55264342D02*
X201330950Y-55359580D01*
X201330950Y-55359580D02*
X201378569Y-55407200D01*
X201378569Y-55407200D02*
X201473807Y-55454819D01*
X201473807Y-55454819D02*
X201759521Y-55454819D01*
X201759521Y-55454819D02*
X201854759Y-55407200D01*
X201854759Y-55407200D02*
X201902378Y-55359580D01*
D11*
X200627580Y-98624687D02*
X201103771Y-98958020D01*
X200627580Y-99196115D02*
X201627580Y-99196115D01*
X201627580Y-99196115D02*
X201627580Y-98815163D01*
X201627580Y-98815163D02*
X201579961Y-98719925D01*
X201579961Y-98719925D02*
X201532342Y-98672306D01*
X201532342Y-98672306D02*
X201437104Y-98624687D01*
X201437104Y-98624687D02*
X201294247Y-98624687D01*
X201294247Y-98624687D02*
X201199009Y-98672306D01*
X201199009Y-98672306D02*
X201151390Y-98719925D01*
X201151390Y-98719925D02*
X201103771Y-98815163D01*
X201103771Y-98815163D02*
X201103771Y-99196115D01*
X201627580Y-98291353D02*
X200627580Y-97624687D01*
X201627580Y-97624687D02*
X200627580Y-98291353D01*
X203627580Y-99338972D02*
X203627580Y-98767544D01*
X202627580Y-99053258D02*
X203627580Y-99053258D01*
X203627580Y-98529448D02*
X202627580Y-97862782D01*
X203627580Y-97862782D02*
X202627580Y-98529448D01*
X199627580Y-99338972D02*
X198627580Y-99005639D01*
X198627580Y-99005639D02*
X199627580Y-98672306D01*
X198722819Y-97767544D02*
X198675200Y-97815163D01*
X198675200Y-97815163D02*
X198627580Y-97958020D01*
X198627580Y-97958020D02*
X198627580Y-98053258D01*
X198627580Y-98053258D02*
X198675200Y-98196115D01*
X198675200Y-98196115D02*
X198770438Y-98291353D01*
X198770438Y-98291353D02*
X198865676Y-98338972D01*
X198865676Y-98338972D02*
X199056152Y-98386591D01*
X199056152Y-98386591D02*
X199199009Y-98386591D01*
X199199009Y-98386591D02*
X199389485Y-98338972D01*
X199389485Y-98338972D02*
X199484723Y-98291353D01*
X199484723Y-98291353D02*
X199579961Y-98196115D01*
X199579961Y-98196115D02*
X199627580Y-98053258D01*
X199627580Y-98053258D02*
X199627580Y-97958020D01*
X199627580Y-97958020D02*
X199579961Y-97815163D01*
X199579961Y-97815163D02*
X199532342Y-97767544D01*
X198722819Y-96767544D02*
X198675200Y-96815163D01*
X198675200Y-96815163D02*
X198627580Y-96958020D01*
X198627580Y-96958020D02*
X198627580Y-97053258D01*
X198627580Y-97053258D02*
X198675200Y-97196115D01*
X198675200Y-97196115D02*
X198770438Y-97291353D01*
X198770438Y-97291353D02*
X198865676Y-97338972D01*
X198865676Y-97338972D02*
X199056152Y-97386591D01*
X199056152Y-97386591D02*
X199199009Y-97386591D01*
X199199009Y-97386591D02*
X199389485Y-97338972D01*
X199389485Y-97338972D02*
X199484723Y-97291353D01*
X199484723Y-97291353D02*
X199579961Y-97196115D01*
X199579961Y-97196115D02*
X199627580Y-97053258D01*
X199627580Y-97053258D02*
X199627580Y-96958020D01*
X199627580Y-96958020D02*
X199579961Y-96815163D01*
X199579961Y-96815163D02*
X199532342Y-96767544D01*
X205579961Y-98672306D02*
X205627580Y-98767544D01*
X205627580Y-98767544D02*
X205627580Y-98910401D01*
X205627580Y-98910401D02*
X205579961Y-99053258D01*
X205579961Y-99053258D02*
X205484723Y-99148496D01*
X205484723Y-99148496D02*
X205389485Y-99196115D01*
X205389485Y-99196115D02*
X205199009Y-99243734D01*
X205199009Y-99243734D02*
X205056152Y-99243734D01*
X205056152Y-99243734D02*
X204865676Y-99196115D01*
X204865676Y-99196115D02*
X204770438Y-99148496D01*
X204770438Y-99148496D02*
X204675200Y-99053258D01*
X204675200Y-99053258D02*
X204627580Y-98910401D01*
X204627580Y-98910401D02*
X204627580Y-98815163D01*
X204627580Y-98815163D02*
X204675200Y-98672306D01*
X204675200Y-98672306D02*
X204722819Y-98624687D01*
X204722819Y-98624687D02*
X205056152Y-98624687D01*
X205056152Y-98624687D02*
X205056152Y-98815163D01*
X204627580Y-98196115D02*
X205627580Y-98196115D01*
X205627580Y-98196115D02*
X204627580Y-97624687D01*
X204627580Y-97624687D02*
X205627580Y-97624687D01*
X204627580Y-97148496D02*
X205627580Y-97148496D01*
X205627580Y-97148496D02*
X205627580Y-96910401D01*
X205627580Y-96910401D02*
X205579961Y-96767544D01*
X205579961Y-96767544D02*
X205484723Y-96672306D01*
X205484723Y-96672306D02*
X205389485Y-96624687D01*
X205389485Y-96624687D02*
X205199009Y-96577068D01*
X205199009Y-96577068D02*
X205056152Y-96577068D01*
X205056152Y-96577068D02*
X204865676Y-96624687D01*
X204865676Y-96624687D02*
X204770438Y-96672306D01*
X204770438Y-96672306D02*
X204675200Y-96767544D01*
X204675200Y-96767544D02*
X204627580Y-96910401D01*
X204627580Y-96910401D02*
X204627580Y-97148496D01*
X197827693Y-84579961D02*
X197732455Y-84627580D01*
X197732455Y-84627580D02*
X197589598Y-84627580D01*
X197589598Y-84627580D02*
X197446741Y-84579961D01*
X197446741Y-84579961D02*
X197351503Y-84484723D01*
X197351503Y-84484723D02*
X197303884Y-84389485D01*
X197303884Y-84389485D02*
X197256265Y-84199009D01*
X197256265Y-84199009D02*
X197256265Y-84056152D01*
X197256265Y-84056152D02*
X197303884Y-83865676D01*
X197303884Y-83865676D02*
X197351503Y-83770438D01*
X197351503Y-83770438D02*
X197446741Y-83675200D01*
X197446741Y-83675200D02*
X197589598Y-83627580D01*
X197589598Y-83627580D02*
X197684836Y-83627580D01*
X197684836Y-83627580D02*
X197827693Y-83675200D01*
X197827693Y-83675200D02*
X197875312Y-83722819D01*
X197875312Y-83722819D02*
X197875312Y-84056152D01*
X197875312Y-84056152D02*
X197684836Y-84056152D01*
X198494360Y-84103771D02*
X198494360Y-83627580D01*
X198161027Y-84627580D02*
X198494360Y-84103771D01*
X198494360Y-84103771D02*
X198827693Y-84627580D01*
X199161027Y-84008533D02*
X199922932Y-84008533D01*
X200922931Y-84579961D02*
X200827693Y-84627580D01*
X200827693Y-84627580D02*
X200684836Y-84627580D01*
X200684836Y-84627580D02*
X200541979Y-84579961D01*
X200541979Y-84579961D02*
X200446741Y-84484723D01*
X200446741Y-84484723D02*
X200399122Y-84389485D01*
X200399122Y-84389485D02*
X200351503Y-84199009D01*
X200351503Y-84199009D02*
X200351503Y-84056152D01*
X200351503Y-84056152D02*
X200399122Y-83865676D01*
X200399122Y-83865676D02*
X200446741Y-83770438D01*
X200446741Y-83770438D02*
X200541979Y-83675200D01*
X200541979Y-83675200D02*
X200684836Y-83627580D01*
X200684836Y-83627580D02*
X200780074Y-83627580D01*
X200780074Y-83627580D02*
X200922931Y-83675200D01*
X200922931Y-83675200D02*
X200970550Y-83722819D01*
X200970550Y-83722819D02*
X200970550Y-84056152D01*
X200970550Y-84056152D02*
X200780074Y-84056152D01*
X201399122Y-83627580D02*
X201399122Y-84627580D01*
X201399122Y-84627580D02*
X201780074Y-84627580D01*
X201780074Y-84627580D02*
X201875312Y-84579961D01*
X201875312Y-84579961D02*
X201922931Y-84532342D01*
X201922931Y-84532342D02*
X201970550Y-84437104D01*
X201970550Y-84437104D02*
X201970550Y-84294247D01*
X201970550Y-84294247D02*
X201922931Y-84199009D01*
X201922931Y-84199009D02*
X201875312Y-84151390D01*
X201875312Y-84151390D02*
X201780074Y-84103771D01*
X201780074Y-84103771D02*
X201399122Y-84103771D01*
X202351503Y-83675200D02*
X202494360Y-83627580D01*
X202494360Y-83627580D02*
X202732455Y-83627580D01*
X202732455Y-83627580D02*
X202827693Y-83675200D01*
X202827693Y-83675200D02*
X202875312Y-83722819D01*
X202875312Y-83722819D02*
X202922931Y-83818057D01*
X202922931Y-83818057D02*
X202922931Y-83913295D01*
X202922931Y-83913295D02*
X202875312Y-84008533D01*
X202875312Y-84008533D02*
X202827693Y-84056152D01*
X202827693Y-84056152D02*
X202732455Y-84103771D01*
X202732455Y-84103771D02*
X202541979Y-84151390D01*
X202541979Y-84151390D02*
X202446741Y-84199009D01*
X202446741Y-84199009D02*
X202399122Y-84246628D01*
X202399122Y-84246628D02*
X202351503Y-84341866D01*
X202351503Y-84341866D02*
X202351503Y-84437104D01*
X202351503Y-84437104D02*
X202399122Y-84532342D01*
X202399122Y-84532342D02*
X202446741Y-84579961D01*
X202446741Y-84579961D02*
X202541979Y-84627580D01*
X202541979Y-84627580D02*
X202780074Y-84627580D01*
X202780074Y-84627580D02*
X202922931Y-84579961D01*
X203780074Y-84627580D02*
X203589598Y-84627580D01*
X203589598Y-84627580D02*
X203494360Y-84579961D01*
X203494360Y-84579961D02*
X203446741Y-84532342D01*
X203446741Y-84532342D02*
X203351503Y-84389485D01*
X203351503Y-84389485D02*
X203303884Y-84199009D01*
X203303884Y-84199009D02*
X203303884Y-83818057D01*
X203303884Y-83818057D02*
X203351503Y-83722819D01*
X203351503Y-83722819D02*
X203399122Y-83675200D01*
X203399122Y-83675200D02*
X203494360Y-83627580D01*
X203494360Y-83627580D02*
X203684836Y-83627580D01*
X203684836Y-83627580D02*
X203780074Y-83675200D01*
X203780074Y-83675200D02*
X203827693Y-83722819D01*
X203827693Y-83722819D02*
X203875312Y-83818057D01*
X203875312Y-83818057D02*
X203875312Y-84056152D01*
X203875312Y-84056152D02*
X203827693Y-84151390D01*
X203827693Y-84151390D02*
X203780074Y-84199009D01*
X203780074Y-84199009D02*
X203684836Y-84246628D01*
X203684836Y-84246628D02*
X203494360Y-84246628D01*
X203494360Y-84246628D02*
X203399122Y-84199009D01*
X203399122Y-84199009D02*
X203351503Y-84151390D01*
X203351503Y-84151390D02*
X203303884Y-84056152D01*
X204303884Y-83627580D02*
X204303884Y-84627580D01*
X204303884Y-84627580D02*
X204637217Y-83913295D01*
X204637217Y-83913295D02*
X204970550Y-84627580D01*
X204970550Y-84627580D02*
X204970550Y-83627580D01*
X205303884Y-84627580D02*
X205637217Y-83627580D01*
X205637217Y-83627580D02*
X205970550Y-84627580D01*
X206256265Y-84532342D02*
X206303884Y-84579961D01*
X206303884Y-84579961D02*
X206399122Y-84627580D01*
X206399122Y-84627580D02*
X206637217Y-84627580D01*
X206637217Y-84627580D02*
X206732455Y-84579961D01*
X206732455Y-84579961D02*
X206780074Y-84532342D01*
X206780074Y-84532342D02*
X206827693Y-84437104D01*
X206827693Y-84437104D02*
X206827693Y-84341866D01*
X206827693Y-84341866D02*
X206780074Y-84199009D01*
X206780074Y-84199009D02*
X206208646Y-83627580D01*
X206208646Y-83627580D02*
X206827693Y-83627580D01*
D12*
%TO.C,J3*%
X206572798Y-51164600D02*
X206572798Y-51984512D01*
X206572798Y-54250192D02*
X206572798Y-55127000D01*
X206572798Y-55127000D02*
X204888339Y-55127000D01*
X199011657Y-55127000D02*
X197327198Y-55127000D01*
X197327198Y-51164600D02*
X206572798Y-51164600D01*
X197327198Y-51984512D02*
X197327198Y-51164600D01*
X197327198Y-55127000D02*
X197327198Y-54250192D01*
D13*
X209983800Y-55000000D02*
G75*
G02*
X209221800Y-55000000I-381000J0D01*
G01*
X209221800Y-55000000D02*
G75*
G02*
X209983800Y-55000000I381000J0D01*
G01*
D14*
%TO.C,J2*%
X189150000Y-102050000D02*
X214850000Y-102050000D01*
X189150000Y-66250000D02*
X189150000Y-102050000D01*
X189150000Y-66250000D02*
X214850000Y-66250000D01*
X214850000Y-66250000D02*
X214850000Y-102050000D01*
D11*
X194450000Y-99050000D02*
G75*
G02*
X190450000Y-99050000I-2000000J0D01*
G01*
X190450000Y-99050000D02*
G75*
G02*
X194450000Y-99050000I2000000J0D01*
G01*
X194450000Y-69250000D02*
G75*
G02*
X190450000Y-69250000I-2000000J0D01*
G01*
X190450000Y-69250000D02*
G75*
G02*
X194450000Y-69250000I2000000J0D01*
G01*
X213550000Y-99050000D02*
G75*
G02*
X209550000Y-99050000I-2000000J0D01*
G01*
X209550000Y-99050000D02*
G75*
G02*
X213550000Y-99050000I2000000J0D01*
G01*
X213550000Y-69250000D02*
G75*
G02*
X209550000Y-69250000I-2000000J0D01*
G01*
X209550000Y-69250000D02*
G75*
G02*
X213550000Y-69250000I2000000J0D01*
G01*
%TD*%
M02*
