M48
; DRILL file {KiCad 9.0.4} date 2025-10-17T17:31:09+0200
; FORMAT={-:-/ absolute / metric / decimal}
; #@! TF.CreationDate,2025-10-17T17:31:09+02:00
; #@! TF.GenerationSoftware,Kicad,Pcbnew,9.0.4
; #@! TF.FileFunction,Plated,1,2,PTH
FMAT,2
METRIC
; #@! TA.AperFunction,Plated,PTH,ComponentDrill
T1C0.800
; #@! TA.AperFunction,Plated,PTH,ComponentDrill
T2C1.110
; #@! TA.AperFunction,Plated,PTH,ComponentDrill
T3C3.100
%
G90
G05
T1
X199.0Y-101.05
X201.0Y-101.05
X203.0Y-101.05
X205.0Y-101.05
T2
X189.3Y-59.22
X189.3Y-61.76
X189.3Y-64.3
X189.3Y-66.84
X189.3Y-69.38
X189.3Y-71.92
X189.3Y-74.46
X189.3Y-77.0
X189.3Y-79.54
X189.3Y-82.08
X189.3Y-84.62
X189.3Y-87.16
X189.3Y-89.7
X189.3Y-92.24
X189.3Y-94.78
X189.3Y-97.32
X189.3Y-99.86
X189.3Y-102.4
X214.7Y-59.22
X214.7Y-61.76
X214.7Y-64.3
X214.7Y-66.84
X214.7Y-69.38
X214.7Y-71.92
X214.7Y-74.46
X214.7Y-77.0
X214.7Y-79.54
X214.7Y-82.08
X214.7Y-84.62
X214.7Y-87.16
X214.7Y-89.7
X214.7Y-92.24
X214.7Y-94.78
X214.7Y-97.32
X214.7Y-99.86
X214.7Y-102.4
T3
X190.0Y-54.323
X190.0Y-107.323
X214.0Y-54.323
X214.0Y-107.323
M30
