%TF.GenerationSoftware,KiCad,Pcbnew,9.0.4*%
%TF.CreationDate,2025-11-21T17:26:08+01:00*%
%TF.ProjectId,aiotp-NoxProject,61696f74-702d-44e6-9f78-50726f6a6563,rev?*%
%TF.SameCoordinates,Original*%
%TF.FileFunction,Soldermask,Bot*%
%TF.FilePolarity,Negative*%
%FSLAX46Y46*%
G04 Gerber Fmt 4.6, Leading zero omitted, Abs format (unit mm)*
G04 Created by KiCad (PCBNEW 9.0.4) date 2025-11-21 17:26:08*
%MOMM*%
%LPD*%
G01*
G04 APERTURE LIST*
G04 Aperture macros list*
%AMRoundRect*
0 Rectangle with rounded corners*
0 $1 Rounding radius*
0 $2 $3 $4 $5 $6 $7 $8 $9 X,Y pos of 4 corners*
0 Add a 4 corners polygon primitive as box body*
4,1,4,$2,$3,$4,$5,$6,$7,$8,$9,$2,$3,0*
0 Add four circle primitives for the rounded corners*
1,1,$1+$1,$2,$3*
1,1,$1+$1,$4,$5*
1,1,$1+$1,$6,$7*
1,1,$1+$1,$8,$9*
0 Add four rect primitives between the rounded corners*
20,1,$1+$1,$2,$3,$4,$5,0*
20,1,$1+$1,$4,$5,$6,$7,0*
20,1,$1+$1,$6,$7,$8,$9,0*
20,1,$1+$1,$8,$9,$2,$3,0*%
G04 Aperture macros list end*
%ADD10C,5.600000*%
%ADD11C,1.412000*%
%ADD12C,1.000000*%
%ADD13RoundRect,0.102000X-0.654000X0.654000X-0.654000X-0.654000X0.654000X-0.654000X0.654000X0.654000X0*%
%ADD14C,1.512000*%
%ADD15R,1.665000X1.665000*%
%ADD16C,1.665000*%
%ADD17C,4.650000*%
G04 APERTURE END LIST*
D10*
%TO.C,Waveshare_solar_powermanager*%
X131500000Y-70900000D03*
X131500000Y-120100000D03*
X189500000Y-70900000D03*
X189500000Y-120100000D03*
%TD*%
D11*
%TO.C,J3*%
X109156750Y-69000000D03*
X110656750Y-69000000D03*
X112156750Y-69000000D03*
X113656750Y-69000000D03*
%TD*%
D12*
%TO.C,Vcc1*%
X149210000Y-125000000D03*
%TD*%
%TO.C,TXgps1*%
X144280000Y-125000000D03*
%TD*%
D10*
%TO.C,J2*%
X158290761Y-104025292D03*
X188790761Y-104025292D03*
D13*
X157750000Y-90202623D03*
D10*
X158290761Y-84025292D03*
X188790761Y-84025292D03*
D14*
X157750000Y-92750000D03*
X157750000Y-95297377D03*
X157750000Y-97844754D03*
%TD*%
D12*
%TO.C,GND1*%
X154140000Y-125000000D03*
%TD*%
%TO.C,RXgps1*%
X139350000Y-125000000D03*
%TD*%
%TO.C,TXstemma1*%
X164000000Y-125000000D03*
%TD*%
D15*
%TO.C,U1*%
X124170000Y-117890000D03*
D16*
X124170000Y-115350000D03*
X124170000Y-112810000D03*
X124170000Y-110270000D03*
X124170000Y-107730000D03*
X124170000Y-105190000D03*
X124170000Y-102650000D03*
X124170000Y-100110000D03*
X124170000Y-97570000D03*
X124170000Y-95030000D03*
X124170000Y-92490000D03*
X124170000Y-89950000D03*
X124170000Y-87410000D03*
X124170000Y-84870000D03*
X124170000Y-82330000D03*
X124170000Y-79790000D03*
X124170000Y-77250000D03*
X124170000Y-74710000D03*
D15*
X98770000Y-117890000D03*
D16*
X98770000Y-115350000D03*
X98770000Y-112810000D03*
X98770000Y-110270000D03*
X98770000Y-107730000D03*
X98770000Y-105190000D03*
X98770000Y-102650000D03*
X98770000Y-100110000D03*
X98770000Y-97570000D03*
X98770000Y-95030000D03*
X98770000Y-92490000D03*
X98770000Y-89950000D03*
X98770000Y-87410000D03*
X98770000Y-84870000D03*
X98770000Y-82330000D03*
X98770000Y-79790000D03*
X98770000Y-77250000D03*
X98770000Y-74710000D03*
D17*
X99470000Y-69813000D03*
X123470000Y-69813000D03*
X123470000Y-122813000D03*
X99470000Y-122813000D03*
%TD*%
D12*
%TO.C,RXstemma1*%
X159070000Y-125000000D03*
%TD*%
M02*
