%TF.GenerationSoftware,KiCad,Pcbnew,9.0.4*%
%TF.CreationDate,2025-11-21T17:26:08+01:00*%
%TF.ProjectId,aiotp-NoxProject,61696f74-702d-44e6-9f78-50726f6a6563,rev?*%
%TF.SameCoordinates,Original*%
%TF.FileFunction,Legend,Top*%
%TF.FilePolarity,Positive*%
%FSLAX46Y46*%
G04 Gerber Fmt 4.6, Leading zero omitted, Abs format (unit mm)*
G04 Created by KiCad (PCBNEW 9.0.4) date 2025-11-21 17:26:08*
%MOMM*%
%LPD*%
G01*
G04 APERTURE LIST*
%ADD10C,0.100000*%
%ADD11C,0.150000*%
%ADD12C,0.254000*%
%ADD13C,0.127000*%
%ADD14C,0.120000*%
%ADD15C,0.200000*%
G04 APERTURE END LIST*
D10*
X148528854Y-71457419D02*
X148766949Y-72457419D01*
X148766949Y-72457419D02*
X148957425Y-71743133D01*
X148957425Y-71743133D02*
X149147901Y-72457419D01*
X149147901Y-72457419D02*
X149385997Y-71457419D01*
X150195520Y-72457419D02*
X150195520Y-71933609D01*
X150195520Y-71933609D02*
X150147901Y-71838371D01*
X150147901Y-71838371D02*
X150052663Y-71790752D01*
X150052663Y-71790752D02*
X149862187Y-71790752D01*
X149862187Y-71790752D02*
X149766949Y-71838371D01*
X150195520Y-72409800D02*
X150100282Y-72457419D01*
X150100282Y-72457419D02*
X149862187Y-72457419D01*
X149862187Y-72457419D02*
X149766949Y-72409800D01*
X149766949Y-72409800D02*
X149719330Y-72314561D01*
X149719330Y-72314561D02*
X149719330Y-72219323D01*
X149719330Y-72219323D02*
X149766949Y-72124085D01*
X149766949Y-72124085D02*
X149862187Y-72076466D01*
X149862187Y-72076466D02*
X150100282Y-72076466D01*
X150100282Y-72076466D02*
X150195520Y-72028847D01*
X150576473Y-71790752D02*
X150814568Y-72457419D01*
X150814568Y-72457419D02*
X151052663Y-71790752D01*
X151814568Y-72409800D02*
X151719330Y-72457419D01*
X151719330Y-72457419D02*
X151528854Y-72457419D01*
X151528854Y-72457419D02*
X151433616Y-72409800D01*
X151433616Y-72409800D02*
X151385997Y-72314561D01*
X151385997Y-72314561D02*
X151385997Y-71933609D01*
X151385997Y-71933609D02*
X151433616Y-71838371D01*
X151433616Y-71838371D02*
X151528854Y-71790752D01*
X151528854Y-71790752D02*
X151719330Y-71790752D01*
X151719330Y-71790752D02*
X151814568Y-71838371D01*
X151814568Y-71838371D02*
X151862187Y-71933609D01*
X151862187Y-71933609D02*
X151862187Y-72028847D01*
X151862187Y-72028847D02*
X151385997Y-72124085D01*
X152243140Y-72409800D02*
X152338378Y-72457419D01*
X152338378Y-72457419D02*
X152528854Y-72457419D01*
X152528854Y-72457419D02*
X152624092Y-72409800D01*
X152624092Y-72409800D02*
X152671711Y-72314561D01*
X152671711Y-72314561D02*
X152671711Y-72266942D01*
X152671711Y-72266942D02*
X152624092Y-72171704D01*
X152624092Y-72171704D02*
X152528854Y-72124085D01*
X152528854Y-72124085D02*
X152385997Y-72124085D01*
X152385997Y-72124085D02*
X152290759Y-72076466D01*
X152290759Y-72076466D02*
X152243140Y-71981228D01*
X152243140Y-71981228D02*
X152243140Y-71933609D01*
X152243140Y-71933609D02*
X152290759Y-71838371D01*
X152290759Y-71838371D02*
X152385997Y-71790752D01*
X152385997Y-71790752D02*
X152528854Y-71790752D01*
X152528854Y-71790752D02*
X152624092Y-71838371D01*
X153100283Y-72457419D02*
X153100283Y-71457419D01*
X153528854Y-72457419D02*
X153528854Y-71933609D01*
X153528854Y-71933609D02*
X153481235Y-71838371D01*
X153481235Y-71838371D02*
X153385997Y-71790752D01*
X153385997Y-71790752D02*
X153243140Y-71790752D01*
X153243140Y-71790752D02*
X153147902Y-71838371D01*
X153147902Y-71838371D02*
X153100283Y-71885990D01*
X154433616Y-72457419D02*
X154433616Y-71933609D01*
X154433616Y-71933609D02*
X154385997Y-71838371D01*
X154385997Y-71838371D02*
X154290759Y-71790752D01*
X154290759Y-71790752D02*
X154100283Y-71790752D01*
X154100283Y-71790752D02*
X154005045Y-71838371D01*
X154433616Y-72409800D02*
X154338378Y-72457419D01*
X154338378Y-72457419D02*
X154100283Y-72457419D01*
X154100283Y-72457419D02*
X154005045Y-72409800D01*
X154005045Y-72409800D02*
X153957426Y-72314561D01*
X153957426Y-72314561D02*
X153957426Y-72219323D01*
X153957426Y-72219323D02*
X154005045Y-72124085D01*
X154005045Y-72124085D02*
X154100283Y-72076466D01*
X154100283Y-72076466D02*
X154338378Y-72076466D01*
X154338378Y-72076466D02*
X154433616Y-72028847D01*
X154909807Y-72457419D02*
X154909807Y-71790752D01*
X154909807Y-71981228D02*
X154957426Y-71885990D01*
X154957426Y-71885990D02*
X155005045Y-71838371D01*
X155005045Y-71838371D02*
X155100283Y-71790752D01*
X155100283Y-71790752D02*
X155195521Y-71790752D01*
X155909807Y-72409800D02*
X155814569Y-72457419D01*
X155814569Y-72457419D02*
X155624093Y-72457419D01*
X155624093Y-72457419D02*
X155528855Y-72409800D01*
X155528855Y-72409800D02*
X155481236Y-72314561D01*
X155481236Y-72314561D02*
X155481236Y-71933609D01*
X155481236Y-71933609D02*
X155528855Y-71838371D01*
X155528855Y-71838371D02*
X155624093Y-71790752D01*
X155624093Y-71790752D02*
X155814569Y-71790752D01*
X155814569Y-71790752D02*
X155909807Y-71838371D01*
X155909807Y-71838371D02*
X155957426Y-71933609D01*
X155957426Y-71933609D02*
X155957426Y-72028847D01*
X155957426Y-72028847D02*
X155481236Y-72124085D01*
X156147903Y-72552657D02*
X156909807Y-72552657D01*
X157100284Y-72409800D02*
X157195522Y-72457419D01*
X157195522Y-72457419D02*
X157385998Y-72457419D01*
X157385998Y-72457419D02*
X157481236Y-72409800D01*
X157481236Y-72409800D02*
X157528855Y-72314561D01*
X157528855Y-72314561D02*
X157528855Y-72266942D01*
X157528855Y-72266942D02*
X157481236Y-72171704D01*
X157481236Y-72171704D02*
X157385998Y-72124085D01*
X157385998Y-72124085D02*
X157243141Y-72124085D01*
X157243141Y-72124085D02*
X157147903Y-72076466D01*
X157147903Y-72076466D02*
X157100284Y-71981228D01*
X157100284Y-71981228D02*
X157100284Y-71933609D01*
X157100284Y-71933609D02*
X157147903Y-71838371D01*
X157147903Y-71838371D02*
X157243141Y-71790752D01*
X157243141Y-71790752D02*
X157385998Y-71790752D01*
X157385998Y-71790752D02*
X157481236Y-71838371D01*
X158100284Y-72457419D02*
X158005046Y-72409800D01*
X158005046Y-72409800D02*
X157957427Y-72362180D01*
X157957427Y-72362180D02*
X157909808Y-72266942D01*
X157909808Y-72266942D02*
X157909808Y-71981228D01*
X157909808Y-71981228D02*
X157957427Y-71885990D01*
X157957427Y-71885990D02*
X158005046Y-71838371D01*
X158005046Y-71838371D02*
X158100284Y-71790752D01*
X158100284Y-71790752D02*
X158243141Y-71790752D01*
X158243141Y-71790752D02*
X158338379Y-71838371D01*
X158338379Y-71838371D02*
X158385998Y-71885990D01*
X158385998Y-71885990D02*
X158433617Y-71981228D01*
X158433617Y-71981228D02*
X158433617Y-72266942D01*
X158433617Y-72266942D02*
X158385998Y-72362180D01*
X158385998Y-72362180D02*
X158338379Y-72409800D01*
X158338379Y-72409800D02*
X158243141Y-72457419D01*
X158243141Y-72457419D02*
X158100284Y-72457419D01*
X159005046Y-72457419D02*
X158909808Y-72409800D01*
X158909808Y-72409800D02*
X158862189Y-72314561D01*
X158862189Y-72314561D02*
X158862189Y-71457419D01*
X159814570Y-72457419D02*
X159814570Y-71933609D01*
X159814570Y-71933609D02*
X159766951Y-71838371D01*
X159766951Y-71838371D02*
X159671713Y-71790752D01*
X159671713Y-71790752D02*
X159481237Y-71790752D01*
X159481237Y-71790752D02*
X159385999Y-71838371D01*
X159814570Y-72409800D02*
X159719332Y-72457419D01*
X159719332Y-72457419D02*
X159481237Y-72457419D01*
X159481237Y-72457419D02*
X159385999Y-72409800D01*
X159385999Y-72409800D02*
X159338380Y-72314561D01*
X159338380Y-72314561D02*
X159338380Y-72219323D01*
X159338380Y-72219323D02*
X159385999Y-72124085D01*
X159385999Y-72124085D02*
X159481237Y-72076466D01*
X159481237Y-72076466D02*
X159719332Y-72076466D01*
X159719332Y-72076466D02*
X159814570Y-72028847D01*
X160290761Y-72457419D02*
X160290761Y-71790752D01*
X160290761Y-71981228D02*
X160338380Y-71885990D01*
X160338380Y-71885990D02*
X160385999Y-71838371D01*
X160385999Y-71838371D02*
X160481237Y-71790752D01*
X160481237Y-71790752D02*
X160576475Y-71790752D01*
X160671714Y-72552657D02*
X161433618Y-72552657D01*
X161671714Y-71790752D02*
X161671714Y-72790752D01*
X161671714Y-71838371D02*
X161766952Y-71790752D01*
X161766952Y-71790752D02*
X161957428Y-71790752D01*
X161957428Y-71790752D02*
X162052666Y-71838371D01*
X162052666Y-71838371D02*
X162100285Y-71885990D01*
X162100285Y-71885990D02*
X162147904Y-71981228D01*
X162147904Y-71981228D02*
X162147904Y-72266942D01*
X162147904Y-72266942D02*
X162100285Y-72362180D01*
X162100285Y-72362180D02*
X162052666Y-72409800D01*
X162052666Y-72409800D02*
X161957428Y-72457419D01*
X161957428Y-72457419D02*
X161766952Y-72457419D01*
X161766952Y-72457419D02*
X161671714Y-72409800D01*
X162719333Y-72457419D02*
X162624095Y-72409800D01*
X162624095Y-72409800D02*
X162576476Y-72362180D01*
X162576476Y-72362180D02*
X162528857Y-72266942D01*
X162528857Y-72266942D02*
X162528857Y-71981228D01*
X162528857Y-71981228D02*
X162576476Y-71885990D01*
X162576476Y-71885990D02*
X162624095Y-71838371D01*
X162624095Y-71838371D02*
X162719333Y-71790752D01*
X162719333Y-71790752D02*
X162862190Y-71790752D01*
X162862190Y-71790752D02*
X162957428Y-71838371D01*
X162957428Y-71838371D02*
X163005047Y-71885990D01*
X163005047Y-71885990D02*
X163052666Y-71981228D01*
X163052666Y-71981228D02*
X163052666Y-72266942D01*
X163052666Y-72266942D02*
X163005047Y-72362180D01*
X163005047Y-72362180D02*
X162957428Y-72409800D01*
X162957428Y-72409800D02*
X162862190Y-72457419D01*
X162862190Y-72457419D02*
X162719333Y-72457419D01*
X163386000Y-71790752D02*
X163576476Y-72457419D01*
X163576476Y-72457419D02*
X163766952Y-71981228D01*
X163766952Y-71981228D02*
X163957428Y-72457419D01*
X163957428Y-72457419D02*
X164147904Y-71790752D01*
X164909809Y-72409800D02*
X164814571Y-72457419D01*
X164814571Y-72457419D02*
X164624095Y-72457419D01*
X164624095Y-72457419D02*
X164528857Y-72409800D01*
X164528857Y-72409800D02*
X164481238Y-72314561D01*
X164481238Y-72314561D02*
X164481238Y-71933609D01*
X164481238Y-71933609D02*
X164528857Y-71838371D01*
X164528857Y-71838371D02*
X164624095Y-71790752D01*
X164624095Y-71790752D02*
X164814571Y-71790752D01*
X164814571Y-71790752D02*
X164909809Y-71838371D01*
X164909809Y-71838371D02*
X164957428Y-71933609D01*
X164957428Y-71933609D02*
X164957428Y-72028847D01*
X164957428Y-72028847D02*
X164481238Y-72124085D01*
X165386000Y-72457419D02*
X165386000Y-71790752D01*
X165386000Y-71981228D02*
X165433619Y-71885990D01*
X165433619Y-71885990D02*
X165481238Y-71838371D01*
X165481238Y-71838371D02*
X165576476Y-71790752D01*
X165576476Y-71790752D02*
X165671714Y-71790752D01*
X166005048Y-72457419D02*
X166005048Y-71790752D01*
X166005048Y-71885990D02*
X166052667Y-71838371D01*
X166052667Y-71838371D02*
X166147905Y-71790752D01*
X166147905Y-71790752D02*
X166290762Y-71790752D01*
X166290762Y-71790752D02*
X166386000Y-71838371D01*
X166386000Y-71838371D02*
X166433619Y-71933609D01*
X166433619Y-71933609D02*
X166433619Y-72457419D01*
X166433619Y-71933609D02*
X166481238Y-71838371D01*
X166481238Y-71838371D02*
X166576476Y-71790752D01*
X166576476Y-71790752D02*
X166719333Y-71790752D01*
X166719333Y-71790752D02*
X166814572Y-71838371D01*
X166814572Y-71838371D02*
X166862191Y-71933609D01*
X166862191Y-71933609D02*
X166862191Y-72457419D01*
X167766952Y-72457419D02*
X167766952Y-71933609D01*
X167766952Y-71933609D02*
X167719333Y-71838371D01*
X167719333Y-71838371D02*
X167624095Y-71790752D01*
X167624095Y-71790752D02*
X167433619Y-71790752D01*
X167433619Y-71790752D02*
X167338381Y-71838371D01*
X167766952Y-72409800D02*
X167671714Y-72457419D01*
X167671714Y-72457419D02*
X167433619Y-72457419D01*
X167433619Y-72457419D02*
X167338381Y-72409800D01*
X167338381Y-72409800D02*
X167290762Y-72314561D01*
X167290762Y-72314561D02*
X167290762Y-72219323D01*
X167290762Y-72219323D02*
X167338381Y-72124085D01*
X167338381Y-72124085D02*
X167433619Y-72076466D01*
X167433619Y-72076466D02*
X167671714Y-72076466D01*
X167671714Y-72076466D02*
X167766952Y-72028847D01*
X168243143Y-71790752D02*
X168243143Y-72457419D01*
X168243143Y-71885990D02*
X168290762Y-71838371D01*
X168290762Y-71838371D02*
X168386000Y-71790752D01*
X168386000Y-71790752D02*
X168528857Y-71790752D01*
X168528857Y-71790752D02*
X168624095Y-71838371D01*
X168624095Y-71838371D02*
X168671714Y-71933609D01*
X168671714Y-71933609D02*
X168671714Y-72457419D01*
X169576476Y-72457419D02*
X169576476Y-71933609D01*
X169576476Y-71933609D02*
X169528857Y-71838371D01*
X169528857Y-71838371D02*
X169433619Y-71790752D01*
X169433619Y-71790752D02*
X169243143Y-71790752D01*
X169243143Y-71790752D02*
X169147905Y-71838371D01*
X169576476Y-72409800D02*
X169481238Y-72457419D01*
X169481238Y-72457419D02*
X169243143Y-72457419D01*
X169243143Y-72457419D02*
X169147905Y-72409800D01*
X169147905Y-72409800D02*
X169100286Y-72314561D01*
X169100286Y-72314561D02*
X169100286Y-72219323D01*
X169100286Y-72219323D02*
X169147905Y-72124085D01*
X169147905Y-72124085D02*
X169243143Y-72076466D01*
X169243143Y-72076466D02*
X169481238Y-72076466D01*
X169481238Y-72076466D02*
X169576476Y-72028847D01*
X170481238Y-71790752D02*
X170481238Y-72600276D01*
X170481238Y-72600276D02*
X170433619Y-72695514D01*
X170433619Y-72695514D02*
X170386000Y-72743133D01*
X170386000Y-72743133D02*
X170290762Y-72790752D01*
X170290762Y-72790752D02*
X170147905Y-72790752D01*
X170147905Y-72790752D02*
X170052667Y-72743133D01*
X170481238Y-72409800D02*
X170386000Y-72457419D01*
X170386000Y-72457419D02*
X170195524Y-72457419D01*
X170195524Y-72457419D02*
X170100286Y-72409800D01*
X170100286Y-72409800D02*
X170052667Y-72362180D01*
X170052667Y-72362180D02*
X170005048Y-72266942D01*
X170005048Y-72266942D02*
X170005048Y-71981228D01*
X170005048Y-71981228D02*
X170052667Y-71885990D01*
X170052667Y-71885990D02*
X170100286Y-71838371D01*
X170100286Y-71838371D02*
X170195524Y-71790752D01*
X170195524Y-71790752D02*
X170386000Y-71790752D01*
X170386000Y-71790752D02*
X170481238Y-71838371D01*
X171338381Y-72409800D02*
X171243143Y-72457419D01*
X171243143Y-72457419D02*
X171052667Y-72457419D01*
X171052667Y-72457419D02*
X170957429Y-72409800D01*
X170957429Y-72409800D02*
X170909810Y-72314561D01*
X170909810Y-72314561D02*
X170909810Y-71933609D01*
X170909810Y-71933609D02*
X170957429Y-71838371D01*
X170957429Y-71838371D02*
X171052667Y-71790752D01*
X171052667Y-71790752D02*
X171243143Y-71790752D01*
X171243143Y-71790752D02*
X171338381Y-71838371D01*
X171338381Y-71838371D02*
X171386000Y-71933609D01*
X171386000Y-71933609D02*
X171386000Y-72028847D01*
X171386000Y-72028847D02*
X170909810Y-72124085D01*
X171814572Y-72457419D02*
X171814572Y-71790752D01*
X171814572Y-71981228D02*
X171862191Y-71885990D01*
X171862191Y-71885990D02*
X171909810Y-71838371D01*
X171909810Y-71838371D02*
X172005048Y-71790752D01*
X172005048Y-71790752D02*
X172100286Y-71790752D01*
D11*
X112398416Y-70659819D02*
X112398416Y-71374104D01*
X112398416Y-71374104D02*
X112350797Y-71516961D01*
X112350797Y-71516961D02*
X112255559Y-71612200D01*
X112255559Y-71612200D02*
X112112702Y-71659819D01*
X112112702Y-71659819D02*
X112017464Y-71659819D01*
X112779369Y-70659819D02*
X113398416Y-70659819D01*
X113398416Y-70659819D02*
X113065083Y-71040771D01*
X113065083Y-71040771D02*
X113207940Y-71040771D01*
X113207940Y-71040771D02*
X113303178Y-71088390D01*
X113303178Y-71088390D02*
X113350797Y-71136009D01*
X113350797Y-71136009D02*
X113398416Y-71231247D01*
X113398416Y-71231247D02*
X113398416Y-71469342D01*
X113398416Y-71469342D02*
X113350797Y-71564580D01*
X113350797Y-71564580D02*
X113303178Y-71612200D01*
X113303178Y-71612200D02*
X113207940Y-71659819D01*
X113207940Y-71659819D02*
X112922226Y-71659819D01*
X112922226Y-71659819D02*
X112826988Y-71612200D01*
X112826988Y-71612200D02*
X112779369Y-71564580D01*
X146704819Y-126916666D02*
X147704819Y-126583333D01*
X147704819Y-126583333D02*
X146704819Y-126250000D01*
X147657200Y-125488095D02*
X147704819Y-125583333D01*
X147704819Y-125583333D02*
X147704819Y-125773809D01*
X147704819Y-125773809D02*
X147657200Y-125869047D01*
X147657200Y-125869047D02*
X147609580Y-125916666D01*
X147609580Y-125916666D02*
X147514342Y-125964285D01*
X147514342Y-125964285D02*
X147228628Y-125964285D01*
X147228628Y-125964285D02*
X147133390Y-125916666D01*
X147133390Y-125916666D02*
X147085771Y-125869047D01*
X147085771Y-125869047D02*
X147038152Y-125773809D01*
X147038152Y-125773809D02*
X147038152Y-125583333D01*
X147038152Y-125583333D02*
X147085771Y-125488095D01*
X147657200Y-124630952D02*
X147704819Y-124726190D01*
X147704819Y-124726190D02*
X147704819Y-124916666D01*
X147704819Y-124916666D02*
X147657200Y-125011904D01*
X147657200Y-125011904D02*
X147609580Y-125059523D01*
X147609580Y-125059523D02*
X147514342Y-125107142D01*
X147514342Y-125107142D02*
X147228628Y-125107142D01*
X147228628Y-125107142D02*
X147133390Y-125059523D01*
X147133390Y-125059523D02*
X147085771Y-125011904D01*
X147085771Y-125011904D02*
X147038152Y-124916666D01*
X147038152Y-124916666D02*
X147038152Y-124726190D01*
X147038152Y-124726190D02*
X147085771Y-124630952D01*
X147704819Y-123678571D02*
X147704819Y-124249999D01*
X147704819Y-123964285D02*
X146704819Y-123964285D01*
X146704819Y-123964285D02*
X146847676Y-124059523D01*
X146847676Y-124059523D02*
X146942914Y-124154761D01*
X146942914Y-124154761D02*
X146990533Y-124249999D01*
X141704819Y-126797618D02*
X141704819Y-126226190D01*
X142704819Y-126511904D02*
X141704819Y-126511904D01*
X141704819Y-125988094D02*
X142704819Y-125321428D01*
X141704819Y-125321428D02*
X142704819Y-125988094D01*
X142038152Y-124511904D02*
X142847676Y-124511904D01*
X142847676Y-124511904D02*
X142942914Y-124559523D01*
X142942914Y-124559523D02*
X142990533Y-124607142D01*
X142990533Y-124607142D02*
X143038152Y-124702380D01*
X143038152Y-124702380D02*
X143038152Y-124845237D01*
X143038152Y-124845237D02*
X142990533Y-124940475D01*
X142657200Y-124511904D02*
X142704819Y-124607142D01*
X142704819Y-124607142D02*
X142704819Y-124797618D01*
X142704819Y-124797618D02*
X142657200Y-124892856D01*
X142657200Y-124892856D02*
X142609580Y-124940475D01*
X142609580Y-124940475D02*
X142514342Y-124988094D01*
X142514342Y-124988094D02*
X142228628Y-124988094D01*
X142228628Y-124988094D02*
X142133390Y-124940475D01*
X142133390Y-124940475D02*
X142085771Y-124892856D01*
X142085771Y-124892856D02*
X142038152Y-124797618D01*
X142038152Y-124797618D02*
X142038152Y-124607142D01*
X142038152Y-124607142D02*
X142085771Y-124511904D01*
X142038152Y-124035713D02*
X143038152Y-124035713D01*
X142085771Y-124035713D02*
X142038152Y-123940475D01*
X142038152Y-123940475D02*
X142038152Y-123749999D01*
X142038152Y-123749999D02*
X142085771Y-123654761D01*
X142085771Y-123654761D02*
X142133390Y-123607142D01*
X142133390Y-123607142D02*
X142228628Y-123559523D01*
X142228628Y-123559523D02*
X142514342Y-123559523D01*
X142514342Y-123559523D02*
X142609580Y-123607142D01*
X142609580Y-123607142D02*
X142657200Y-123654761D01*
X142657200Y-123654761D02*
X142704819Y-123749999D01*
X142704819Y-123749999D02*
X142704819Y-123940475D01*
X142704819Y-123940475D02*
X142657200Y-124035713D01*
X142657200Y-123178570D02*
X142704819Y-123083332D01*
X142704819Y-123083332D02*
X142704819Y-122892856D01*
X142704819Y-122892856D02*
X142657200Y-122797618D01*
X142657200Y-122797618D02*
X142561961Y-122749999D01*
X142561961Y-122749999D02*
X142514342Y-122749999D01*
X142514342Y-122749999D02*
X142419104Y-122797618D01*
X142419104Y-122797618D02*
X142371485Y-122892856D01*
X142371485Y-122892856D02*
X142371485Y-123035713D01*
X142371485Y-123035713D02*
X142323866Y-123130951D01*
X142323866Y-123130951D02*
X142228628Y-123178570D01*
X142228628Y-123178570D02*
X142181009Y-123178570D01*
X142181009Y-123178570D02*
X142085771Y-123130951D01*
X142085771Y-123130951D02*
X142038152Y-123035713D01*
X142038152Y-123035713D02*
X142038152Y-122892856D01*
X142038152Y-122892856D02*
X142085771Y-122797618D01*
X142704819Y-121797618D02*
X142704819Y-122369046D01*
X142704819Y-122083332D02*
X141704819Y-122083332D01*
X141704819Y-122083332D02*
X141847676Y-122178570D01*
X141847676Y-122178570D02*
X141942914Y-122273808D01*
X141942914Y-122273808D02*
X141990533Y-122369046D01*
D10*
X159161027Y-97372419D02*
X159494360Y-98372419D01*
X159494360Y-98372419D02*
X159827693Y-97372419D01*
X160732455Y-98277180D02*
X160684836Y-98324800D01*
X160684836Y-98324800D02*
X160541979Y-98372419D01*
X160541979Y-98372419D02*
X160446741Y-98372419D01*
X160446741Y-98372419D02*
X160303884Y-98324800D01*
X160303884Y-98324800D02*
X160208646Y-98229561D01*
X160208646Y-98229561D02*
X160161027Y-98134323D01*
X160161027Y-98134323D02*
X160113408Y-97943847D01*
X160113408Y-97943847D02*
X160113408Y-97800990D01*
X160113408Y-97800990D02*
X160161027Y-97610514D01*
X160161027Y-97610514D02*
X160208646Y-97515276D01*
X160208646Y-97515276D02*
X160303884Y-97420038D01*
X160303884Y-97420038D02*
X160446741Y-97372419D01*
X160446741Y-97372419D02*
X160541979Y-97372419D01*
X160541979Y-97372419D02*
X160684836Y-97420038D01*
X160684836Y-97420038D02*
X160732455Y-97467657D01*
X161732455Y-98277180D02*
X161684836Y-98324800D01*
X161684836Y-98324800D02*
X161541979Y-98372419D01*
X161541979Y-98372419D02*
X161446741Y-98372419D01*
X161446741Y-98372419D02*
X161303884Y-98324800D01*
X161303884Y-98324800D02*
X161208646Y-98229561D01*
X161208646Y-98229561D02*
X161161027Y-98134323D01*
X161161027Y-98134323D02*
X161113408Y-97943847D01*
X161113408Y-97943847D02*
X161113408Y-97800990D01*
X161113408Y-97800990D02*
X161161027Y-97610514D01*
X161161027Y-97610514D02*
X161208646Y-97515276D01*
X161208646Y-97515276D02*
X161303884Y-97420038D01*
X161303884Y-97420038D02*
X161446741Y-97372419D01*
X161446741Y-97372419D02*
X161541979Y-97372419D01*
X161541979Y-97372419D02*
X161684836Y-97420038D01*
X161684836Y-97420038D02*
X161732455Y-97467657D01*
X159327693Y-89920038D02*
X159232455Y-89872419D01*
X159232455Y-89872419D02*
X159089598Y-89872419D01*
X159089598Y-89872419D02*
X158946741Y-89920038D01*
X158946741Y-89920038D02*
X158851503Y-90015276D01*
X158851503Y-90015276D02*
X158803884Y-90110514D01*
X158803884Y-90110514D02*
X158756265Y-90300990D01*
X158756265Y-90300990D02*
X158756265Y-90443847D01*
X158756265Y-90443847D02*
X158803884Y-90634323D01*
X158803884Y-90634323D02*
X158851503Y-90729561D01*
X158851503Y-90729561D02*
X158946741Y-90824800D01*
X158946741Y-90824800D02*
X159089598Y-90872419D01*
X159089598Y-90872419D02*
X159184836Y-90872419D01*
X159184836Y-90872419D02*
X159327693Y-90824800D01*
X159327693Y-90824800D02*
X159375312Y-90777180D01*
X159375312Y-90777180D02*
X159375312Y-90443847D01*
X159375312Y-90443847D02*
X159184836Y-90443847D01*
X159803884Y-90872419D02*
X159803884Y-89872419D01*
X159803884Y-89872419D02*
X160375312Y-90872419D01*
X160375312Y-90872419D02*
X160375312Y-89872419D01*
X160851503Y-90872419D02*
X160851503Y-89872419D01*
X160851503Y-89872419D02*
X161089598Y-89872419D01*
X161089598Y-89872419D02*
X161232455Y-89920038D01*
X161232455Y-89920038D02*
X161327693Y-90015276D01*
X161327693Y-90015276D02*
X161375312Y-90110514D01*
X161375312Y-90110514D02*
X161422931Y-90300990D01*
X161422931Y-90300990D02*
X161422931Y-90443847D01*
X161422931Y-90443847D02*
X161375312Y-90634323D01*
X161375312Y-90634323D02*
X161327693Y-90729561D01*
X161327693Y-90729561D02*
X161232455Y-90824800D01*
X161232455Y-90824800D02*
X161089598Y-90872419D01*
X161089598Y-90872419D02*
X160851503Y-90872419D01*
X159625312Y-95872419D02*
X159291979Y-95396228D01*
X159053884Y-95872419D02*
X159053884Y-94872419D01*
X159053884Y-94872419D02*
X159434836Y-94872419D01*
X159434836Y-94872419D02*
X159530074Y-94920038D01*
X159530074Y-94920038D02*
X159577693Y-94967657D01*
X159577693Y-94967657D02*
X159625312Y-95062895D01*
X159625312Y-95062895D02*
X159625312Y-95205752D01*
X159625312Y-95205752D02*
X159577693Y-95300990D01*
X159577693Y-95300990D02*
X159530074Y-95348609D01*
X159530074Y-95348609D02*
X159434836Y-95396228D01*
X159434836Y-95396228D02*
X159053884Y-95396228D01*
X159958646Y-94872419D02*
X160625312Y-95872419D01*
X160625312Y-94872419D02*
X159958646Y-95872419D01*
X158911027Y-92247711D02*
X159482455Y-92247711D01*
X159196741Y-93247711D02*
X159196741Y-92247711D01*
X159720551Y-92247711D02*
X160387217Y-93247711D01*
X160387217Y-92247711D02*
X159720551Y-93247711D01*
X172710799Y-98047598D02*
X172663180Y-98142836D01*
X172663180Y-98142836D02*
X172663180Y-98285693D01*
X172663180Y-98285693D02*
X172710799Y-98428550D01*
X172710799Y-98428550D02*
X172806037Y-98523788D01*
X172806037Y-98523788D02*
X172901275Y-98571407D01*
X172901275Y-98571407D02*
X173091751Y-98619026D01*
X173091751Y-98619026D02*
X173234608Y-98619026D01*
X173234608Y-98619026D02*
X173425084Y-98571407D01*
X173425084Y-98571407D02*
X173520322Y-98523788D01*
X173520322Y-98523788D02*
X173615561Y-98428550D01*
X173615561Y-98428550D02*
X173663180Y-98285693D01*
X173663180Y-98285693D02*
X173663180Y-98190455D01*
X173663180Y-98190455D02*
X173615561Y-98047598D01*
X173615561Y-98047598D02*
X173567941Y-97999979D01*
X173567941Y-97999979D02*
X173234608Y-97999979D01*
X173234608Y-97999979D02*
X173234608Y-98190455D01*
X173186989Y-97380931D02*
X173663180Y-97380931D01*
X172663180Y-97714264D02*
X173186989Y-97380931D01*
X173186989Y-97380931D02*
X172663180Y-97047598D01*
X173282227Y-96714264D02*
X173282227Y-95952360D01*
X172710799Y-94952360D02*
X172663180Y-95047598D01*
X172663180Y-95047598D02*
X172663180Y-95190455D01*
X172663180Y-95190455D02*
X172710799Y-95333312D01*
X172710799Y-95333312D02*
X172806037Y-95428550D01*
X172806037Y-95428550D02*
X172901275Y-95476169D01*
X172901275Y-95476169D02*
X173091751Y-95523788D01*
X173091751Y-95523788D02*
X173234608Y-95523788D01*
X173234608Y-95523788D02*
X173425084Y-95476169D01*
X173425084Y-95476169D02*
X173520322Y-95428550D01*
X173520322Y-95428550D02*
X173615561Y-95333312D01*
X173615561Y-95333312D02*
X173663180Y-95190455D01*
X173663180Y-95190455D02*
X173663180Y-95095217D01*
X173663180Y-95095217D02*
X173615561Y-94952360D01*
X173615561Y-94952360D02*
X173567941Y-94904741D01*
X173567941Y-94904741D02*
X173234608Y-94904741D01*
X173234608Y-94904741D02*
X173234608Y-95095217D01*
X173663180Y-94476169D02*
X172663180Y-94476169D01*
X172663180Y-94476169D02*
X172663180Y-94095217D01*
X172663180Y-94095217D02*
X172710799Y-93999979D01*
X172710799Y-93999979D02*
X172758418Y-93952360D01*
X172758418Y-93952360D02*
X172853656Y-93904741D01*
X172853656Y-93904741D02*
X172996513Y-93904741D01*
X172996513Y-93904741D02*
X173091751Y-93952360D01*
X173091751Y-93952360D02*
X173139370Y-93999979D01*
X173139370Y-93999979D02*
X173186989Y-94095217D01*
X173186989Y-94095217D02*
X173186989Y-94476169D01*
X173615561Y-93523788D02*
X173663180Y-93380931D01*
X173663180Y-93380931D02*
X173663180Y-93142836D01*
X173663180Y-93142836D02*
X173615561Y-93047598D01*
X173615561Y-93047598D02*
X173567941Y-92999979D01*
X173567941Y-92999979D02*
X173472703Y-92952360D01*
X173472703Y-92952360D02*
X173377465Y-92952360D01*
X173377465Y-92952360D02*
X173282227Y-92999979D01*
X173282227Y-92999979D02*
X173234608Y-93047598D01*
X173234608Y-93047598D02*
X173186989Y-93142836D01*
X173186989Y-93142836D02*
X173139370Y-93333312D01*
X173139370Y-93333312D02*
X173091751Y-93428550D01*
X173091751Y-93428550D02*
X173044132Y-93476169D01*
X173044132Y-93476169D02*
X172948894Y-93523788D01*
X172948894Y-93523788D02*
X172853656Y-93523788D01*
X172853656Y-93523788D02*
X172758418Y-93476169D01*
X172758418Y-93476169D02*
X172710799Y-93428550D01*
X172710799Y-93428550D02*
X172663180Y-93333312D01*
X172663180Y-93333312D02*
X172663180Y-93095217D01*
X172663180Y-93095217D02*
X172710799Y-92952360D01*
X172663180Y-92095217D02*
X172663180Y-92285693D01*
X172663180Y-92285693D02*
X172710799Y-92380931D01*
X172710799Y-92380931D02*
X172758418Y-92428550D01*
X172758418Y-92428550D02*
X172901275Y-92523788D01*
X172901275Y-92523788D02*
X173091751Y-92571407D01*
X173091751Y-92571407D02*
X173472703Y-92571407D01*
X173472703Y-92571407D02*
X173567941Y-92523788D01*
X173567941Y-92523788D02*
X173615561Y-92476169D01*
X173615561Y-92476169D02*
X173663180Y-92380931D01*
X173663180Y-92380931D02*
X173663180Y-92190455D01*
X173663180Y-92190455D02*
X173615561Y-92095217D01*
X173615561Y-92095217D02*
X173567941Y-92047598D01*
X173567941Y-92047598D02*
X173472703Y-91999979D01*
X173472703Y-91999979D02*
X173234608Y-91999979D01*
X173234608Y-91999979D02*
X173139370Y-92047598D01*
X173139370Y-92047598D02*
X173091751Y-92095217D01*
X173091751Y-92095217D02*
X173044132Y-92190455D01*
X173044132Y-92190455D02*
X173044132Y-92380931D01*
X173044132Y-92380931D02*
X173091751Y-92476169D01*
X173091751Y-92476169D02*
X173139370Y-92523788D01*
X173139370Y-92523788D02*
X173234608Y-92571407D01*
X173663180Y-91571407D02*
X172663180Y-91571407D01*
X172663180Y-91571407D02*
X173377465Y-91238074D01*
X173377465Y-91238074D02*
X172663180Y-90904741D01*
X172663180Y-90904741D02*
X173663180Y-90904741D01*
X172663180Y-90571407D02*
X173663180Y-90238074D01*
X173663180Y-90238074D02*
X172663180Y-89904741D01*
X172758418Y-89619026D02*
X172710799Y-89571407D01*
X172710799Y-89571407D02*
X172663180Y-89476169D01*
X172663180Y-89476169D02*
X172663180Y-89238074D01*
X172663180Y-89238074D02*
X172710799Y-89142836D01*
X172710799Y-89142836D02*
X172758418Y-89095217D01*
X172758418Y-89095217D02*
X172853656Y-89047598D01*
X172853656Y-89047598D02*
X172948894Y-89047598D01*
X172948894Y-89047598D02*
X173091751Y-89095217D01*
X173091751Y-89095217D02*
X173663180Y-89666645D01*
X173663180Y-89666645D02*
X173663180Y-89047598D01*
D11*
X151752438Y-126488095D02*
X151704819Y-126583333D01*
X151704819Y-126583333D02*
X151704819Y-126726190D01*
X151704819Y-126726190D02*
X151752438Y-126869047D01*
X151752438Y-126869047D02*
X151847676Y-126964285D01*
X151847676Y-126964285D02*
X151942914Y-127011904D01*
X151942914Y-127011904D02*
X152133390Y-127059523D01*
X152133390Y-127059523D02*
X152276247Y-127059523D01*
X152276247Y-127059523D02*
X152466723Y-127011904D01*
X152466723Y-127011904D02*
X152561961Y-126964285D01*
X152561961Y-126964285D02*
X152657200Y-126869047D01*
X152657200Y-126869047D02*
X152704819Y-126726190D01*
X152704819Y-126726190D02*
X152704819Y-126630952D01*
X152704819Y-126630952D02*
X152657200Y-126488095D01*
X152657200Y-126488095D02*
X152609580Y-126440476D01*
X152609580Y-126440476D02*
X152276247Y-126440476D01*
X152276247Y-126440476D02*
X152276247Y-126630952D01*
X152704819Y-126011904D02*
X151704819Y-126011904D01*
X151704819Y-126011904D02*
X152704819Y-125440476D01*
X152704819Y-125440476D02*
X151704819Y-125440476D01*
X152704819Y-124964285D02*
X151704819Y-124964285D01*
X151704819Y-124964285D02*
X151704819Y-124726190D01*
X151704819Y-124726190D02*
X151752438Y-124583333D01*
X151752438Y-124583333D02*
X151847676Y-124488095D01*
X151847676Y-124488095D02*
X151942914Y-124440476D01*
X151942914Y-124440476D02*
X152133390Y-124392857D01*
X152133390Y-124392857D02*
X152276247Y-124392857D01*
X152276247Y-124392857D02*
X152466723Y-124440476D01*
X152466723Y-124440476D02*
X152561961Y-124488095D01*
X152561961Y-124488095D02*
X152657200Y-124583333D01*
X152657200Y-124583333D02*
X152704819Y-124726190D01*
X152704819Y-124726190D02*
X152704819Y-124964285D01*
X152704819Y-123440476D02*
X152704819Y-124011904D01*
X152704819Y-123726190D02*
X151704819Y-123726190D01*
X151704819Y-123726190D02*
X151847676Y-123821428D01*
X151847676Y-123821428D02*
X151942914Y-123916666D01*
X151942914Y-123916666D02*
X151990533Y-124011904D01*
X137704819Y-126202381D02*
X137228628Y-126535714D01*
X137704819Y-126773809D02*
X136704819Y-126773809D01*
X136704819Y-126773809D02*
X136704819Y-126392857D01*
X136704819Y-126392857D02*
X136752438Y-126297619D01*
X136752438Y-126297619D02*
X136800057Y-126250000D01*
X136800057Y-126250000D02*
X136895295Y-126202381D01*
X136895295Y-126202381D02*
X137038152Y-126202381D01*
X137038152Y-126202381D02*
X137133390Y-126250000D01*
X137133390Y-126250000D02*
X137181009Y-126297619D01*
X137181009Y-126297619D02*
X137228628Y-126392857D01*
X137228628Y-126392857D02*
X137228628Y-126773809D01*
X136704819Y-125869047D02*
X137704819Y-125202381D01*
X136704819Y-125202381D02*
X137704819Y-125869047D01*
X137038152Y-124392857D02*
X137847676Y-124392857D01*
X137847676Y-124392857D02*
X137942914Y-124440476D01*
X137942914Y-124440476D02*
X137990533Y-124488095D01*
X137990533Y-124488095D02*
X138038152Y-124583333D01*
X138038152Y-124583333D02*
X138038152Y-124726190D01*
X138038152Y-124726190D02*
X137990533Y-124821428D01*
X137657200Y-124392857D02*
X137704819Y-124488095D01*
X137704819Y-124488095D02*
X137704819Y-124678571D01*
X137704819Y-124678571D02*
X137657200Y-124773809D01*
X137657200Y-124773809D02*
X137609580Y-124821428D01*
X137609580Y-124821428D02*
X137514342Y-124869047D01*
X137514342Y-124869047D02*
X137228628Y-124869047D01*
X137228628Y-124869047D02*
X137133390Y-124821428D01*
X137133390Y-124821428D02*
X137085771Y-124773809D01*
X137085771Y-124773809D02*
X137038152Y-124678571D01*
X137038152Y-124678571D02*
X137038152Y-124488095D01*
X137038152Y-124488095D02*
X137085771Y-124392857D01*
X137038152Y-123916666D02*
X138038152Y-123916666D01*
X137085771Y-123916666D02*
X137038152Y-123821428D01*
X137038152Y-123821428D02*
X137038152Y-123630952D01*
X137038152Y-123630952D02*
X137085771Y-123535714D01*
X137085771Y-123535714D02*
X137133390Y-123488095D01*
X137133390Y-123488095D02*
X137228628Y-123440476D01*
X137228628Y-123440476D02*
X137514342Y-123440476D01*
X137514342Y-123440476D02*
X137609580Y-123488095D01*
X137609580Y-123488095D02*
X137657200Y-123535714D01*
X137657200Y-123535714D02*
X137704819Y-123630952D01*
X137704819Y-123630952D02*
X137704819Y-123821428D01*
X137704819Y-123821428D02*
X137657200Y-123916666D01*
X137657200Y-123059523D02*
X137704819Y-122964285D01*
X137704819Y-122964285D02*
X137704819Y-122773809D01*
X137704819Y-122773809D02*
X137657200Y-122678571D01*
X137657200Y-122678571D02*
X137561961Y-122630952D01*
X137561961Y-122630952D02*
X137514342Y-122630952D01*
X137514342Y-122630952D02*
X137419104Y-122678571D01*
X137419104Y-122678571D02*
X137371485Y-122773809D01*
X137371485Y-122773809D02*
X137371485Y-122916666D01*
X137371485Y-122916666D02*
X137323866Y-123011904D01*
X137323866Y-123011904D02*
X137228628Y-123059523D01*
X137228628Y-123059523D02*
X137181009Y-123059523D01*
X137181009Y-123059523D02*
X137085771Y-123011904D01*
X137085771Y-123011904D02*
X137038152Y-122916666D01*
X137038152Y-122916666D02*
X137038152Y-122773809D01*
X137038152Y-122773809D02*
X137085771Y-122678571D01*
X137704819Y-121678571D02*
X137704819Y-122249999D01*
X137704819Y-121964285D02*
X136704819Y-121964285D01*
X136704819Y-121964285D02*
X136847676Y-122059523D01*
X136847676Y-122059523D02*
X136942914Y-122154761D01*
X136942914Y-122154761D02*
X136990533Y-122249999D01*
X161454819Y-127142856D02*
X161454819Y-126571428D01*
X162454819Y-126857142D02*
X161454819Y-126857142D01*
X161454819Y-126333332D02*
X162454819Y-125666666D01*
X161454819Y-125666666D02*
X162454819Y-126333332D01*
X162407200Y-125333332D02*
X162454819Y-125238094D01*
X162454819Y-125238094D02*
X162454819Y-125047618D01*
X162454819Y-125047618D02*
X162407200Y-124952380D01*
X162407200Y-124952380D02*
X162311961Y-124904761D01*
X162311961Y-124904761D02*
X162264342Y-124904761D01*
X162264342Y-124904761D02*
X162169104Y-124952380D01*
X162169104Y-124952380D02*
X162121485Y-125047618D01*
X162121485Y-125047618D02*
X162121485Y-125190475D01*
X162121485Y-125190475D02*
X162073866Y-125285713D01*
X162073866Y-125285713D02*
X161978628Y-125333332D01*
X161978628Y-125333332D02*
X161931009Y-125333332D01*
X161931009Y-125333332D02*
X161835771Y-125285713D01*
X161835771Y-125285713D02*
X161788152Y-125190475D01*
X161788152Y-125190475D02*
X161788152Y-125047618D01*
X161788152Y-125047618D02*
X161835771Y-124952380D01*
X161788152Y-124619046D02*
X161788152Y-124238094D01*
X161454819Y-124476189D02*
X162311961Y-124476189D01*
X162311961Y-124476189D02*
X162407200Y-124428570D01*
X162407200Y-124428570D02*
X162454819Y-124333332D01*
X162454819Y-124333332D02*
X162454819Y-124238094D01*
X162407200Y-123523808D02*
X162454819Y-123619046D01*
X162454819Y-123619046D02*
X162454819Y-123809522D01*
X162454819Y-123809522D02*
X162407200Y-123904760D01*
X162407200Y-123904760D02*
X162311961Y-123952379D01*
X162311961Y-123952379D02*
X161931009Y-123952379D01*
X161931009Y-123952379D02*
X161835771Y-123904760D01*
X161835771Y-123904760D02*
X161788152Y-123809522D01*
X161788152Y-123809522D02*
X161788152Y-123619046D01*
X161788152Y-123619046D02*
X161835771Y-123523808D01*
X161835771Y-123523808D02*
X161931009Y-123476189D01*
X161931009Y-123476189D02*
X162026247Y-123476189D01*
X162026247Y-123476189D02*
X162121485Y-123952379D01*
X162454819Y-123047617D02*
X161788152Y-123047617D01*
X161883390Y-123047617D02*
X161835771Y-122999998D01*
X161835771Y-122999998D02*
X161788152Y-122904760D01*
X161788152Y-122904760D02*
X161788152Y-122761903D01*
X161788152Y-122761903D02*
X161835771Y-122666665D01*
X161835771Y-122666665D02*
X161931009Y-122619046D01*
X161931009Y-122619046D02*
X162454819Y-122619046D01*
X161931009Y-122619046D02*
X161835771Y-122571427D01*
X161835771Y-122571427D02*
X161788152Y-122476189D01*
X161788152Y-122476189D02*
X161788152Y-122333332D01*
X161788152Y-122333332D02*
X161835771Y-122238093D01*
X161835771Y-122238093D02*
X161931009Y-122190474D01*
X161931009Y-122190474D02*
X162454819Y-122190474D01*
X162454819Y-121714284D02*
X161788152Y-121714284D01*
X161883390Y-121714284D02*
X161835771Y-121666665D01*
X161835771Y-121666665D02*
X161788152Y-121571427D01*
X161788152Y-121571427D02*
X161788152Y-121428570D01*
X161788152Y-121428570D02*
X161835771Y-121333332D01*
X161835771Y-121333332D02*
X161931009Y-121285713D01*
X161931009Y-121285713D02*
X162454819Y-121285713D01*
X161931009Y-121285713D02*
X161835771Y-121238094D01*
X161835771Y-121238094D02*
X161788152Y-121142856D01*
X161788152Y-121142856D02*
X161788152Y-120999999D01*
X161788152Y-120999999D02*
X161835771Y-120904760D01*
X161835771Y-120904760D02*
X161931009Y-120857141D01*
X161931009Y-120857141D02*
X162454819Y-120857141D01*
X162454819Y-119952380D02*
X161931009Y-119952380D01*
X161931009Y-119952380D02*
X161835771Y-119999999D01*
X161835771Y-119999999D02*
X161788152Y-120095237D01*
X161788152Y-120095237D02*
X161788152Y-120285713D01*
X161788152Y-120285713D02*
X161835771Y-120380951D01*
X162407200Y-119952380D02*
X162454819Y-120047618D01*
X162454819Y-120047618D02*
X162454819Y-120285713D01*
X162454819Y-120285713D02*
X162407200Y-120380951D01*
X162407200Y-120380951D02*
X162311961Y-120428570D01*
X162311961Y-120428570D02*
X162216723Y-120428570D01*
X162216723Y-120428570D02*
X162121485Y-120380951D01*
X162121485Y-120380951D02*
X162073866Y-120285713D01*
X162073866Y-120285713D02*
X162073866Y-120047618D01*
X162073866Y-120047618D02*
X162026247Y-119952380D01*
X162454819Y-118952380D02*
X162454819Y-119523808D01*
X162454819Y-119238094D02*
X161454819Y-119238094D01*
X161454819Y-119238094D02*
X161597676Y-119333332D01*
X161597676Y-119333332D02*
X161692914Y-119428570D01*
X161692914Y-119428570D02*
X161740533Y-119523808D01*
D12*
X110874318Y-93257619D02*
X111902413Y-93257619D01*
X111902413Y-93257619D02*
X112023365Y-93197142D01*
X112023365Y-93197142D02*
X112083842Y-93136666D01*
X112083842Y-93136666D02*
X112144318Y-93015714D01*
X112144318Y-93015714D02*
X112144318Y-92773809D01*
X112144318Y-92773809D02*
X112083842Y-92652857D01*
X112083842Y-92652857D02*
X112023365Y-92592380D01*
X112023365Y-92592380D02*
X111902413Y-92531904D01*
X111902413Y-92531904D02*
X110874318Y-92531904D01*
X112144318Y-91261904D02*
X112144318Y-91987619D01*
X112144318Y-91624762D02*
X110874318Y-91624762D01*
X110874318Y-91624762D02*
X111055746Y-91745714D01*
X111055746Y-91745714D02*
X111176699Y-91866666D01*
X111176699Y-91866666D02*
X111237175Y-91987619D01*
D11*
X157454819Y-126547619D02*
X156978628Y-126880952D01*
X157454819Y-127119047D02*
X156454819Y-127119047D01*
X156454819Y-127119047D02*
X156454819Y-126738095D01*
X156454819Y-126738095D02*
X156502438Y-126642857D01*
X156502438Y-126642857D02*
X156550057Y-126595238D01*
X156550057Y-126595238D02*
X156645295Y-126547619D01*
X156645295Y-126547619D02*
X156788152Y-126547619D01*
X156788152Y-126547619D02*
X156883390Y-126595238D01*
X156883390Y-126595238D02*
X156931009Y-126642857D01*
X156931009Y-126642857D02*
X156978628Y-126738095D01*
X156978628Y-126738095D02*
X156978628Y-127119047D01*
X156454819Y-126214285D02*
X157454819Y-125547619D01*
X156454819Y-125547619D02*
X157454819Y-126214285D01*
X157407200Y-125214285D02*
X157454819Y-125119047D01*
X157454819Y-125119047D02*
X157454819Y-124928571D01*
X157454819Y-124928571D02*
X157407200Y-124833333D01*
X157407200Y-124833333D02*
X157311961Y-124785714D01*
X157311961Y-124785714D02*
X157264342Y-124785714D01*
X157264342Y-124785714D02*
X157169104Y-124833333D01*
X157169104Y-124833333D02*
X157121485Y-124928571D01*
X157121485Y-124928571D02*
X157121485Y-125071428D01*
X157121485Y-125071428D02*
X157073866Y-125166666D01*
X157073866Y-125166666D02*
X156978628Y-125214285D01*
X156978628Y-125214285D02*
X156931009Y-125214285D01*
X156931009Y-125214285D02*
X156835771Y-125166666D01*
X156835771Y-125166666D02*
X156788152Y-125071428D01*
X156788152Y-125071428D02*
X156788152Y-124928571D01*
X156788152Y-124928571D02*
X156835771Y-124833333D01*
X156788152Y-124499999D02*
X156788152Y-124119047D01*
X156454819Y-124357142D02*
X157311961Y-124357142D01*
X157311961Y-124357142D02*
X157407200Y-124309523D01*
X157407200Y-124309523D02*
X157454819Y-124214285D01*
X157454819Y-124214285D02*
X157454819Y-124119047D01*
X157407200Y-123404761D02*
X157454819Y-123499999D01*
X157454819Y-123499999D02*
X157454819Y-123690475D01*
X157454819Y-123690475D02*
X157407200Y-123785713D01*
X157407200Y-123785713D02*
X157311961Y-123833332D01*
X157311961Y-123833332D02*
X156931009Y-123833332D01*
X156931009Y-123833332D02*
X156835771Y-123785713D01*
X156835771Y-123785713D02*
X156788152Y-123690475D01*
X156788152Y-123690475D02*
X156788152Y-123499999D01*
X156788152Y-123499999D02*
X156835771Y-123404761D01*
X156835771Y-123404761D02*
X156931009Y-123357142D01*
X156931009Y-123357142D02*
X157026247Y-123357142D01*
X157026247Y-123357142D02*
X157121485Y-123833332D01*
X157454819Y-122928570D02*
X156788152Y-122928570D01*
X156883390Y-122928570D02*
X156835771Y-122880951D01*
X156835771Y-122880951D02*
X156788152Y-122785713D01*
X156788152Y-122785713D02*
X156788152Y-122642856D01*
X156788152Y-122642856D02*
X156835771Y-122547618D01*
X156835771Y-122547618D02*
X156931009Y-122499999D01*
X156931009Y-122499999D02*
X157454819Y-122499999D01*
X156931009Y-122499999D02*
X156835771Y-122452380D01*
X156835771Y-122452380D02*
X156788152Y-122357142D01*
X156788152Y-122357142D02*
X156788152Y-122214285D01*
X156788152Y-122214285D02*
X156835771Y-122119046D01*
X156835771Y-122119046D02*
X156931009Y-122071427D01*
X156931009Y-122071427D02*
X157454819Y-122071427D01*
X157454819Y-121595237D02*
X156788152Y-121595237D01*
X156883390Y-121595237D02*
X156835771Y-121547618D01*
X156835771Y-121547618D02*
X156788152Y-121452380D01*
X156788152Y-121452380D02*
X156788152Y-121309523D01*
X156788152Y-121309523D02*
X156835771Y-121214285D01*
X156835771Y-121214285D02*
X156931009Y-121166666D01*
X156931009Y-121166666D02*
X157454819Y-121166666D01*
X156931009Y-121166666D02*
X156835771Y-121119047D01*
X156835771Y-121119047D02*
X156788152Y-121023809D01*
X156788152Y-121023809D02*
X156788152Y-120880952D01*
X156788152Y-120880952D02*
X156835771Y-120785713D01*
X156835771Y-120785713D02*
X156931009Y-120738094D01*
X156931009Y-120738094D02*
X157454819Y-120738094D01*
X157454819Y-119833333D02*
X156931009Y-119833333D01*
X156931009Y-119833333D02*
X156835771Y-119880952D01*
X156835771Y-119880952D02*
X156788152Y-119976190D01*
X156788152Y-119976190D02*
X156788152Y-120166666D01*
X156788152Y-120166666D02*
X156835771Y-120261904D01*
X157407200Y-119833333D02*
X157454819Y-119928571D01*
X157454819Y-119928571D02*
X157454819Y-120166666D01*
X157454819Y-120166666D02*
X157407200Y-120261904D01*
X157407200Y-120261904D02*
X157311961Y-120309523D01*
X157311961Y-120309523D02*
X157216723Y-120309523D01*
X157216723Y-120309523D02*
X157121485Y-120261904D01*
X157121485Y-120261904D02*
X157073866Y-120166666D01*
X157073866Y-120166666D02*
X157073866Y-119928571D01*
X157073866Y-119928571D02*
X157026247Y-119833333D01*
X157454819Y-118833333D02*
X157454819Y-119404761D01*
X157454819Y-119119047D02*
X156454819Y-119119047D01*
X156454819Y-119119047D02*
X156597676Y-119214285D01*
X156597676Y-119214285D02*
X156692914Y-119309523D01*
X156692914Y-119309523D02*
X156740533Y-119404761D01*
D10*
%TO.C,Waveshare_solar_powermanager*%
X128197234Y-120620344D02*
X127940423Y-70410344D01*
X160500000Y-67395000D02*
X130940383Y-67395000D01*
X160500000Y-67395000D02*
X190059617Y-67395000D01*
X160500000Y-123605000D02*
X131197195Y-123605000D01*
X160500000Y-123605000D02*
X189802805Y-123605000D01*
X193059577Y-70410344D02*
X192802766Y-120620344D01*
X127940423Y-70410344D02*
G75*
G02*
X130940383Y-67395000I2999961J15344D01*
G01*
X131197195Y-123605000D02*
G75*
G02*
X128197234Y-120620344I2J3000002D01*
G01*
X190059617Y-67395000D02*
G75*
G02*
X193059561Y-70410344I-17J-3000000D01*
G01*
X192802766Y-120620344D02*
G75*
G02*
X189802805Y-123605005I-2999966J15344D01*
G01*
D13*
%TO.C,J3*%
X107656750Y-66870000D02*
X115156750Y-66870000D01*
X107656750Y-70370000D02*
X107656750Y-66870000D01*
X115156750Y-66870000D02*
X115156750Y-70370000D01*
X115156750Y-70370000D02*
X107656750Y-70370000D01*
D14*
%TO.C,Vcc1*%
X149910000Y-125000000D02*
G75*
G02*
X148510000Y-125000000I-700000J0D01*
G01*
X148510000Y-125000000D02*
G75*
G02*
X149910000Y-125000000I700000J0D01*
G01*
%TO.C,TXgps1*%
X144980000Y-125000000D02*
G75*
G02*
X143580000Y-125000000I-700000J0D01*
G01*
X143580000Y-125000000D02*
G75*
G02*
X144980000Y-125000000I700000J0D01*
G01*
D13*
%TO.C,J2*%
X155790761Y-106875292D02*
X155790761Y-81175292D01*
X191290761Y-81175292D02*
X155790761Y-81175292D01*
X191290761Y-106875292D02*
X155790761Y-106875292D01*
X191290761Y-106875292D02*
X191290761Y-81175292D01*
D10*
X160290761Y-84025292D02*
G75*
G02*
X156290761Y-84025292I-2000000J0D01*
G01*
X156290761Y-84025292D02*
G75*
G02*
X160290761Y-84025292I2000000J0D01*
G01*
X160290761Y-104025292D02*
G75*
G02*
X156290761Y-104025292I-2000000J0D01*
G01*
X156290761Y-104025292D02*
G75*
G02*
X160290761Y-104025292I2000000J0D01*
G01*
X190790761Y-84025292D02*
G75*
G02*
X186790761Y-84025292I-2000000J0D01*
G01*
X186790761Y-84025292D02*
G75*
G02*
X190790761Y-84025292I2000000J0D01*
G01*
X190790761Y-104025292D02*
G75*
G02*
X186790761Y-104025292I-2000000J0D01*
G01*
X186790761Y-104025292D02*
G75*
G02*
X190790761Y-104025292I2000000J0D01*
G01*
D14*
%TO.C,GND1*%
X154840000Y-125000000D02*
G75*
G02*
X153440000Y-125000000I-700000J0D01*
G01*
X153440000Y-125000000D02*
G75*
G02*
X154840000Y-125000000I700000J0D01*
G01*
%TO.C,RXgps1*%
X140050000Y-125000000D02*
G75*
G02*
X138650000Y-125000000I-700000J0D01*
G01*
X138650000Y-125000000D02*
G75*
G02*
X140050000Y-125000000I700000J0D01*
G01*
%TO.C,TXstemma1*%
X164700000Y-125000000D02*
G75*
G02*
X163300000Y-125000000I-700000J0D01*
G01*
X163300000Y-125000000D02*
G75*
G02*
X164700000Y-125000000I700000J0D01*
G01*
D10*
%TO.C,U1*%
X96970000Y-67300000D02*
X125970000Y-67300000D01*
X96970000Y-125300000D02*
X96970000Y-67300000D01*
D15*
X102465000Y-66990000D02*
X102465000Y-71312000D01*
X102465000Y-71312000D02*
X108271000Y-71312000D01*
X102470000Y-100110000D02*
X102470000Y-117890000D01*
X102470000Y-117890000D02*
X120470000Y-117890000D01*
X108271000Y-66990000D02*
X102465000Y-66990000D01*
X108271000Y-71312000D02*
X108271000Y-66990000D01*
X120470000Y-100110000D02*
X102470000Y-100110000D01*
X120470000Y-117890000D02*
X120470000Y-100110000D01*
D10*
X125970000Y-67300000D02*
X125970000Y-125300000D01*
X125970000Y-125300000D02*
X96970000Y-125300000D01*
X126370000Y-117800000D02*
X126370000Y-117800000D01*
X126370000Y-117900000D02*
X126370000Y-117900000D01*
X126370000Y-117800000D02*
G75*
G02*
X126370000Y-117900000I0J-50000D01*
G01*
X126370000Y-117900000D02*
G75*
G02*
X126370000Y-117800000I0J50000D01*
G01*
D14*
%TO.C,RXstemma1*%
X159770000Y-125000000D02*
G75*
G02*
X158370000Y-125000000I-700000J0D01*
G01*
X158370000Y-125000000D02*
G75*
G02*
X159770000Y-125000000I700000J0D01*
G01*
%TD*%
M02*
