M48
; DRILL file {KiCad 9.0.4} date 2025-11-21T17:26:12+0100
; FORMAT={-:-/ absolute / metric / decimal}
; #@! TF.CreationDate,2025-11-21T17:26:12+01:00
; #@! TF.GenerationSoftware,Kicad,Pcbnew,9.0.4
; #@! TF.FileFunction,Plated,1,2,PTH
FMAT,2
METRIC
; #@! TA.AperFunction,Plated,PTH,ViaDrill
T1C0.300
; #@! TA.AperFunction,Plated,PTH,ComponentDrill
T2C0.500
; #@! TA.AperFunction,Plated,PTH,ComponentDrill
T3C0.700
; #@! TA.AperFunction,Plated,PTH,ComponentDrill
T4C0.800
; #@! TA.AperFunction,Plated,PTH,ComponentDrill
T5C1.110
; #@! TA.AperFunction,Plated,PTH,ComponentDrill
T6C3.100
; #@! TA.AperFunction,Plated,PTH,ComponentDrill
T7C3.200
%
G90
G05
T1
X154.25Y-122.5
X162.75Y-105.5
X164.0Y-122.5
T2
X139.35Y-125.0
X144.28Y-125.0
X149.21Y-125.0
X154.14Y-125.0
X159.07Y-125.0
X164.0Y-125.0
T3
X109.157Y-69.0
X110.657Y-69.0
X112.157Y-69.0
X113.657Y-69.0
T4
X157.75Y-90.203
X157.75Y-92.75
X157.75Y-95.297
X157.75Y-97.845
T5
X98.77Y-74.71
X98.77Y-77.25
X98.77Y-79.79
X98.77Y-82.33
X98.77Y-84.87
X98.77Y-87.41
X98.77Y-89.95
X98.77Y-92.49
X98.77Y-95.03
X98.77Y-97.57
X98.77Y-100.11
X98.77Y-102.65
X98.77Y-105.19
X98.77Y-107.73
X98.77Y-110.27
X98.77Y-112.81
X98.77Y-115.35
X98.77Y-117.89
X124.17Y-74.71
X124.17Y-77.25
X124.17Y-79.79
X124.17Y-82.33
X124.17Y-84.87
X124.17Y-87.41
X124.17Y-89.95
X124.17Y-92.49
X124.17Y-95.03
X124.17Y-97.57
X124.17Y-100.11
X124.17Y-102.65
X124.17Y-105.19
X124.17Y-107.73
X124.17Y-110.27
X124.17Y-112.81
X124.17Y-115.35
X124.17Y-117.89
T6
X99.47Y-69.813
X99.47Y-122.813
X123.47Y-69.813
X123.47Y-122.813
T7
X131.5Y-70.9
X131.5Y-120.1
X158.291Y-84.025
X158.291Y-104.025
X188.791Y-84.025
X188.791Y-104.025
X189.5Y-70.9
X189.5Y-120.1
M30
